<?xml version="1.0" standalone="no"?>
<!DOCTYPE svg PUBLIC "-//W3C//DTD SVG 1.1//EN" "http://www.w3.org/Graphics/SVG/1.1/DTD/svg11.dtd" >
<svg>
<metadata>
Created by FontForge 20090622 at Thu Sep  8 18:19:36 2016
 By deploy user
Copyright (c) 2016, mcampb07
</metadata>
<defs>
<font id="GlyphOddity" horiz-adv-x="512" >
  <font-face 
    font-family="GlyphOddity"
    font-weight="400"
    font-stretch="normal"
    units-per-em="512"
    panose-1="2 0 5 3 0 0 0 0 0 0"
    ascent="448"
    descent="-64"
    bbox="-3 -71.3771 1973 667"
    underline-thickness="25"
    underline-position="-52"
    unicode-range="U+0020-U+F198"
  />
<missing-glyph horiz-adv-x="187" 
d="M17 0v341h136v-341h-136zM34 17h102v307h-102v-307z" />
    <glyph glyph-name=".notdef" horiz-adv-x="187" 
d="M17 0v341h136v-341h-136zM34 17h102v307h-102v-307z" />
    <glyph glyph-name=".null" horiz-adv-x="0" 
 />
    <glyph glyph-name="nonmarkingreturn" horiz-adv-x="170" 
 />
    <glyph glyph-name="space" unicode=" " horiz-adv-x="200" 
 />
    <glyph glyph-name="uniF111" unicode="&#xf111;" 
d="M0 185v11q0 52 32 52h164v168q0 32 53 32h14q53 0 53 -32v-168h164q32 0 32 -52v-8q0 -52 -32 -52h-161v-165q0 -31 -52 -31h-18q-53 0 -53 31v161h-164q-32 0 -32 53z" />
    <glyph glyph-name="uniF112" unicode="&#xf112;" 
d="M551 61l-86 -125l-86 125h172zM0 213v8q0 26 6.5 36.5t20.5 10.5h153v153q0 27 47 27h11q26 0 36.5 -6.5t10.5 -20.5v-153h153q27 0 27 -47v-8q0 -26 -6 -36t-21 -10h-149v-153q0 -27 -47 -27h-15q-26 0 -36.5 6t-10.5 21v149h-153q-27 0 -27 50z" />
    <glyph glyph-name="uniF113" unicode="&#xf113;" 
d="M254 411q-90 0 -153.5 -62.5t-63.5 -154.5t63.5 -154.5t153.5 -62.5t153.5 63.5t63.5 153.5t-63.5 153.5t-153.5 63.5zM254 448q107 0 182 -75t72 -179q0 -104 -75 -179t-179 -75t-179 74t-75 180q0 104 75 179t179 75zM374 209q5 0 10 -5t5 -10v-8q0 -5 -5 -10t-10 -5
h-97v-97q0 -5 -5 -10t-10 -5h-8q-5 0 -10 5t-5 10v97h-97q-6 0 -10.5 5t-4.5 10v8q0 5 4.5 10t10.5 5h97v97q0 6 5 10.5t10 4.5h8q5 0 10 -4.5t5 -10.5v-97h97z" />
    <glyph glyph-name="uniF114" unicode="&#xf114;" 
d="M292 415v-21v-416q0 -26 -21 -39q-21 -8 -45 6l-46 38.5t-63 51.5q-9 9 -24 9h-48q-31 -4 -45 28v237q13 31 45 31h54q8 -4 18 6q22 17 63 51.5l46 38.5q18 12 30 12q16 0 26 -9.5t10 -23.5zM608 123v45l61 -60l-61 -64v37q-24 0 -45.5 9t-31.5 18l-10 9l-39 39l-33 -33
l-12.5 -12t-30.5 -18.5t-45 -11.5h-24v48h18q28 0 49 18q4 3 19 18t26 24q-11 9 -26 24t-19 18q-10 8 -22 12.5t-19 5.5h-8h-18v48h24q23 0 45 -11t32 -22l11 -12l33 -33l39 45q4 4 11 10t29.5 16t46.5 10v37l61 -64l-61 -60v36q-33 -3 -57 -27q-6 -9 -33 -36q12 -15 33 -36
q11 -11 25 -17.5t23 -8.5z" />
    <glyph glyph-name="uniF115" unicode="&#xf115;" 
d="M341 212l-249 -276l63 234h-155l249 278l-63 -236h155z" />
    <glyph glyph-name="uniF116" unicode="&#xf116;" 
d="M256 448q107 0 181.5 -75t74.5 -181q0 -105 -75.5 -180.5t-180.5 -75.5q-106 0 -181 74.5t-75 181.5q0 105 75.5 180.5t180.5 75.5zM64 192q0 -80 56.5 -136.5t138.5 -58.5q58 0 110 37l-268 268q-37 -46 -37 -110zM414 79q34 53 34 113q0 80 -56 136t-136 56
q-57 0 -110 -37z" />
    <glyph glyph-name="uniF117" unicode="&#xf117;" 
d="M254 411q-90 0 -153.5 -62.5t-63.5 -154.5t63.5 -154.5t153.5 -62.5t153.5 63.5t63.5 153.5t-63.5 153.5t-153.5 63.5zM254 448q107 0 182 -75t72 -179q0 -104 -75 -179t-179 -75t-179 74t-75 180q0 104 75 179t179 75zM351 228q12 0 20.5 -10.5t5.5 -23.5q0 -12 -8 -21
t-21 -9h-94q-12 0 -21 8t-9 22v127q0 11 10 20.5t24 9.5q12 0 21 -8.5t9 -21.5v-93h63z" />
    <glyph glyph-name="uniF118" unicode="&#xf118;" 
d="M828 135l6 -6v-33q-6 -30 -12 -46q-18 -49 -63 -81.5t-96 -32.5h-515q-52 0 -92.5 34.5t-49.5 85.5q-3 3 -3 10v30q1 4 2 11t2.5 13t4.5 12q32 77 111 90q10 3 16 9q17 54 62 86t100 32q12 0 27 15q78 96 196 78q134 -18 172 -154q0 -4 9 -9q105 -36 123 -144zM554 147
q17 13 3 36l-70.5 51.5t-70.5 50.5q-12 6 -15 6q-19 -4 -19 -24v-205q0 -18 10 -21q10 -7 21 3l70.5 51.5z" />
    <glyph glyph-name="uniF119" unicode="&#xf119;" 
d="M383 241l30 -49q2 -2 2 -8l-7 -7l-48 -25l2 -55q2 -4 -2 -9q-2 -2 -9 -2l-53 2v-150l-91 53l-91 -53v150l-53 -2q-4 -2 -8 2q-2 2 -2 9l2 55l-49 27q-6 0 -6 7q0 4 2 8l30 47l-30 46q-2 2 -2 9q1 0 1.5 2t1.5 3t3 1l49 28l-2 55q0 6 2 8t8 2l58 -2l25 49q0 6 6.5 6
t8.5 -2l46 -30l49 32q2 2 8 2q1 -1 2.5 -2t2.5 -2l2 -2l25 -51l55 2q4 2 9 -2q2 -2 2 -8l-2 -58l48 -25q7 0 7 -6.5t-2 -8.5zM345 169l44 25l-27 42q-4 4 0 11l27 42l-44 24q-6 3 -6 10v51l-51 -2q-8 0 -11 6l-23 45l-42 -28q-4 -3 -11 0l-42 28l-24 -45q-3 -6 -10 -6l-51 2
l2 -53q0 -7 -6 -11l-45 -23l28 -42q3 -4 0 -11l-28 -42l45 -23q6 -3 6 -11l-2 -51l42 2h9q7 0 10 -6l24 -44l42 27q2 2 6 2q1 0 3.5 -1t3.5 -1l42 -27l23 44q3 6 11 6h8l43 -2l-2 51q0 8 6 11zM182 156l-74 74q-5 5 -5 12t5 11.5t11.5 4.5t11.5 -5l53 -53l108 108
q5 5 11.5 5t11.5 -4.5t5 -11.5t-5 -12z" />
    <glyph glyph-name="uniF11A" unicode="&#xf11a;" 
d="M254 448q107 0 182 -75t72 -179q0 -104 -75 -179t-179 -75t-179 74t-75 180q0 104 75 179t179 75zM254 194v220q-58 0 -108.5 -28t-81.5 -76z" />
    <glyph glyph-name="uniF11B" unicode="&#xf11b;" 
d="M252 173q0 -11 -8 -19t-19 -8h-118q-12 0 -19.5 8t-7.5 19v115q0 11 7.5 19t19.5 8h118q11 0 19 -8t8 -19v-115zM252 43q0 -12 -8 -19.5t-19 -7.5h-118q-12 0 -19.5 7.5t-7.5 19.5v47q0 11 7.5 19t19.5 8h118q11 0 19 -8t8 -19v-47zM391 191v-89h88q0 -38 -25.5 -63.5
t-62.5 -25.5q-38 0 -63.5 26.5t-25.5 62.5q0 37 26.5 63t62.5 26zM476 303q0 -4 -3.5 -8t-7.5 -4h-148q-5 0 -8.5 4t-3.5 8t3.5 8t8.5 4h148q11 0 11 -12zM476 250q0 -5 -3.5 -8.5t-7.5 -3.5h-148q-5 0 -8.5 3.5t-3.5 8t3.5 8.5t8.5 4h148q11 3 11 -12zM530 448
q11 0 18.5 -8t7.5 -19v-458q0 -11 -7.5 -19t-18.5 -8h-503q-11 0 -19 8t-8 19v458q0 11 8 19t19 8h503zM530 -37v405h-503v-405h503z" />
    <glyph glyph-name="uniF11C" unicode="&#xf11c;" 
d="M229 448q93 0 160.5 -67t67.5 -162t-66.5 -161.5t-162 -66.5t-162 66.5t-66.5 162t66.5 162t162.5 66.5zM336 156l-67 63l69 67l-43 43l-66 -66l-67 66l-43 -43l66 -64l-66 -66l43 -44l67 67l63 -67z" />
    <glyph glyph-name="uniF11D" unicode="&#xf11d;" 
d="M0 10q0 10 11 21l161 161l-161 165q-11 5 -11 17t25 42l7 7q2 2 7.5 7t7.5 6.5t6.5 4.5t7 4t6 2t7.5 1q10 0 21 -11l161 -161l165 161q5 11 17 11t42 -25l7 -7q25 -24 25 -42q0 -10 -11 -21l-161 -161l161 -161q11 -11 11 -21q0 -12 -25 -42l-7 -7q-24 -25 -42 -25
q-10 0 -21 11l-161 161l-161 -161q-11 -11 -21 -11q-12 0 -42 25l-7 7q-2 2 -7 7.5t-6.5 7.5t-4.5 6.5t-4 7t-2 6t-1 7.5z" />
    <glyph glyph-name="uniF11E" unicode="&#xf11e;" 
d="M0 365v83h640v-83h-640zM0 154v83h640v-83h-640zM0 -58v84h640v-84h-640z" />
    <glyph glyph-name="uniF11F" unicode="&#xf11f;" 
d="M381 391q12 0 20 -9t10 -21q0 -12 -9 -21t-21 -9h-30v-32q0 -12 -9 -21t-21 -9t-20.5 9t-8.5 21v30h-30q-12 0 -21 8.5t-9 21t9 21t21 8.5h30v30q0 12 8.5 21t20.5 9t21 -9t9 -21v-27h30zM174 391h-57q-12 0 -21 -9t-9 -21v-262q0 -12 9 -21t21 -9h204q12 0 21 9t9 21
v145h-57q-12 0 -21 9.5t-9 20.5v29h-28q-12 0 -20.5 9t-8.5 21v58h-33zM87 39h177v-30q0 -12 -9 -20.5t-21 -8.5h-204q-12 0 -21 8.5t-9 20.5v248q0 12 9 21t21 9h27v-218q0 -12 8.5 -21t21.5 -9z" />
    <glyph glyph-name="uniF120" unicode="&#xf120;" 
d="M0 69q9 -7 18 -16t18.5 -19.5t14.5 -15.5q13 -13 36 -38.5t36 -38.5h-118q-4 -4 -4.5 -4t-0.5 4v128zM154 -33q-6 0 -11 5l-35 37.5t-44 43t-38 37.5q-8 7 0 15l261 261q7 7 20 0l35.5 -34l42.5 -41t35 -38q8 -7 8 -9.5t-8 -10.5l-256 -256zM394 448q26 0 46 -20
q7 -5 13.5 -11.5t14.5 -15.5t13 -14q30 -30 16 -72q-5 -9 -11 -16t-15 -15.5t-10 -9.5q-4 -3 -7 -1t-3 6q-16 10 -36 31l-82 82q-8 7 -8 9.5t8 10.5q10 10 20 16q14 20 41 20z" />
    <glyph glyph-name="uniF121" unicode="&#xf121;" 
d="M461 397h-410v-410h410v410zM512 448v-512h-512v512h512zM27 165v256h256z" />
    <glyph glyph-name="uniF122" unicode="&#xf122;" 
d="M29 448q8 0 25 -8l140 -103t103 -75q19 -12 19 -28.5t-19 -29.5l-243 -177q-11 -7 -17.5 -8.5t-19.5 4.5q-17 11 -17 33v351q0 41 29 41z" />
    <glyph glyph-name="uniF123" unicode="&#xf123;" 
d="M546 -64h-546v512h167v-68h-99v-376h410v376h-109v68h177v-512zM232 124v324h68v-324h-68zM266 55l-157 157l48 48l109 -109l123 126l48 -51z" />
    <glyph glyph-name="uniF125" unicode="&#xf125;" 
d="M572 448q0 -25 -28 -54l-209 -208v-152l-98 -98v250l-209 208q-28 29 -28 54h572z" />
    <glyph glyph-name="uniF126" unicode="&#xf126;" 
d="M664 247v-24q-2 -3 -3.5 -10t-3.5 -11q-6 -18 -34 -91t-42 -113q-5 -15 -21 -31q-29 -34 -79 -34h-180h-218q-55 0 -76 48q-2 5 -3.5 7.5t-2.5 6.5t-1 7v3v374v7q8 27 28.5 44.5t47.5 17.5h128q29 0 49.5 -19t23.5 -50q2 -8 4 -9.5t10 -1.5h186q6 0 14 -1.5t11 -1.5
q47 -11 58 -66q0 -7 11 -7l21 2q20 1 20 -2q26 0 42 -20q4 -5 7 -14t3 -11zM609 230q7 11 1 12q-2 0 -5 -2h-13h-374h-24q-36 -5 -45 -34q-24 -56 -66 -173q-5 -7 -14 -35q-2 -5 -0.5 -7.5t4.5 -2.5h10h194h197q41 0 59 41q8 25 27 75l28 74q4 9 10.5 26t10.5 26z" />
    <glyph glyph-name="uniF127" unicode="&#xf127;" 
d="M501 174l-4 -8l-54 -18q-2 -1 -4 -2.5t-3 -2.5t-1 -2l-11 -29v-11l26 -52q0 -11 -4 -14l-29 -30q-9 -9 -15 -3l-51 25h-11l-29 -11q-3 0 -5 -2t-2 -5l-11 -58q0 -3 -4 -5.5t-7 -2.5h-41q-3 0 -7 2.5t-4 5.5l-18 54q-1 2 -2.5 4t-2.5 3t-2 1l-29 11h-11l-52 -26
q-11 0 -14 4l-30 29q-9 9 -3 15l25 51v11l-11 29q0 3 -2 5t-5 2l-55 15q-2 0 -4.5 4t-2.5 7v40q0 3 2.5 7t4.5 4l55 19q1 1 3.5 2t3 2t0.5 3l11 29v11l-25 51q-4 4 3 11l26 30q9 9 15 3l51 -25h11l25 11q3 0 5.5 2t2.5 5l18 55q0 2 4 4.5t7 2.5h40q3 0 7 -2.5t4 -4.5l19 -55
q0 -3 2 -5t5 -2l25 -11h11l48 29q11 0 15 -4l29 -29q9 -9 4 -15l-22 -47v-11l11 -29q0 -3 2 -5.5t5 -2.5l55 -18q2 0 4.5 -4t2.5 -7v-40zM256 97q38 0 66.5 28.5t28.5 66.5t-28.5 66.5t-66.5 28.5t-66.5 -28.5t-28.5 -66.5q0 -39 27 -67t68 -28z" />
    <glyph glyph-name="uniF128" unicode="&#xf128;" 
d="M81 368v74h75v-74h-75zM222 368v74h74v-74h-74zM363 368v74h74v-74h-74zM503 368v74h75v-74h-75zM222 227v74h74v-74h-74zM363 227v74h74v-74h-74zM503 227v74h75v-74h-75zM363 87v74h74v-74h-74zM503 87v74h75v-74h-75zM503 -54v74h75v-74h-75z" />
    <glyph glyph-name="uniF129" unicode="&#xf129;" 
d="M205 294q0 -23 -14 -37t-37 -14h-103q-23 0 -37 14t-14 37v103q0 23 14 37t37 14h103q23 0 37 -14t14 -37v-103zM512 294q0 -23 -14 -37t-37 -14h-103q-23 0 -37 14t-14 37v103q0 23 14 37t37 14h103q23 0 37 -14t14 -37v-103zM205 -13q0 -23 -14 -37t-37 -14h-103
q-23 0 -37 14t-14 37v103q0 23 14 37t37 14h103q23 0 37 -14t14 -37v-103zM512 -13q0 -23 -14 -37t-37 -14h-103q-23 0 -37 14t-14 37v103q0 23 14 37t37 14h103q23 0 37 -14t14 -37v-103z" />
    <glyph glyph-name="uniF12A" unicode="&#xf12a;" 
d="M229 448q93 0 160.5 -67t67.5 -162t-66.5 -161.5t-162 -66.5t-162 66.5t-66.5 162t66.5 162t162.5 66.5zM237 101v35q0 11 -23 11h-12q-23 0 -23 -11v-35q0 -12 23 -12h12q23 0 23 12zM234 182q2 11 13 22.5t23 20.5t22.5 24.5t11.5 33.5q0 30 -22 48.5t-59 18.5
q-26 0 -48 -7.5t-22 -21.5q0 -6 8 -17.5t15 -11.5q2 0 15.5 5.5t25.5 5.5q24 0 29 -20q0 -9 -14.5 -24t-29 -34.5t-14.5 -39.5q0 -12 17 -12h9q16 0 20 9z" />
    <glyph glyph-name="uniF12B" unicode="&#xf12b;" 
d="M546 -64h-167v68h99v376h-410v-376h109v-68h-177v512h546v-512zM246 -64v324h68v-324h-68zM157 107l-48 47l171 175l157 -157l-48 -48l-109 106z" />
    <glyph glyph-name="uniF12C" unicode="&#xf12c;" 
d="M426.5 245q39.5 0 67.5 -28t28 -67.5t-28 -67.5t-67.5 -28t-67.5 28t-28 67.5t28 67.5t67.5 28zM487 169q9 9 0 18t-18 0l-60 -60l-22 22q-9 9 -18 0.5t0 -17.5l40 -40zM429 277v3h-30v55h-60l7 -12q0 -13 -12 -13h-181q-12 0 -12 13l10 12h-63v-369q0 -5 5 -5h306
q5 0 5 5v38h25v-38q0 -13 -9 -21.5t-21 -8.5h-306q-13 0 -21.5 9t-8.5 21v417q0 11 8.5 19t21.5 8h103q12 38 50 38q17 0 30.5 -10t17.5 -25h105q13 0 21.5 -9.5t8.5 -20.5v-106zM246 423q-11 0 -18 -7t-7 -18t7 -18t18 -7t18 7t7 18t-7 18t-18 7zM281 109q10 0 17.5 -7.5
t7.5 -19.5v-68q0 -11 -8 -19.5t-19 -8.5h-71q-11 0 -19 8.5t-8 19.5v68q0 11 8 19t19 8h73zM281 14h-2v70h-71v-70h73zM281 270q10 0 17.5 -7t7.5 -18v-71q0 -11 -8 -19t-19 -8h-71q-11 0 -19 8t-8 19v68q0 11 8 19.5t19 8.5h73zM281 174h-2v71h-71v-71h73z" />
    <glyph glyph-name="uniF12D" unicode="&#xf12d;" 
d="M585 261q0 -65 -41 -115.5t-103 -63.5q-14 -62 -64.5 -103.5t-115.5 -41.5q-75 0 -129 54t-54 130q0 65 41 115t104 64q13 62 63.5 103.5t115.5 41.5q75 0 129 -54t54 -130zM261 23q31 0 56 17t36 45q-46 13 -80.5 47t-47.5 80q-28 -11 -45 -35.5t-17 -55.5
q0 -42 28.5 -70t69.5 -28zM402 163q41 0 69.5 28.5t28.5 69.5t-28.5 69.5t-69.5 28.5t-69.5 -28.5t-28.5 -69.5t28.5 -69.5t69.5 -28.5z" />
    <glyph glyph-name="uniF12E" unicode="&#xf12e;" 
d="M426 90l12 -15l-38 -32l-12 11q-27 -17 -62 -17q-56 0 -96.5 37.5t-43 92.5t36 96t94.5 43q56 0 96.5 -37.5t42.5 -92.5q0 -47 -30 -86zM323 72q41 2 69 33t28 74q-2 40 -32 68.5t-71 25.5q-42 -2 -70 -33t-28 -73q2 -41 32 -69t72 -26zM542 -20q8 -6 8 -16t-8 -19
q-16 -15 -36 0l-92 86l39 32zM352 448q10 0 16.5 -6.5t4.5 -17.5v-91q-22 8 -53 8q-35 0 -63 -11h-189q-6 0 -10.5 -4t-4.5 -8q0 -7 4.5 -10.5t10.5 -1.5h145q-20 -16 -35 -41h-110q-15 0 -15 -15q0 -7 4.5 -10.5t10.5 -1.5h95q-7 -18 -12 -42h-83q-15 0 -15 -14
q0 -7 4.5 -10.5t10.5 -1.5h83q0 -18 6 -42h-89q-15 0 -15 -14.5t15 -14.5h101q22 -43 63 -69t91 -26q26 0 53 9v-39q0 -10 -7 -16.5t-17 -6.5h-328q-11 0 -17.5 7t-6.5 16v450q0 24 24 24h328z" />
    <glyph glyph-name="uniF12F" unicode="&#xf12f;" 
d="M609 -52v-1v-2l-0.5 -0.5t-0.5 -1.5q-1 0 -1.5 -0.5l-1.5 -1.5q-2 -1 -5 -2t-8 -2q-4 -1 -9 -1q-8 0 -15 2q-6 3 -12 8q-5 5 -7 12q-3 8 -3 17q0 10 3 17t8 13q5 5 12 8q6 3 15 3q3 0 8 -1q3 -1 6 -1q3 -1 6 -3q2 -1 3 -2l1 -1v-1l1 -1v-2q0 -2 -1 -3v-1q0 -1 -0.5 -1
h-0.5q-1 0 -3 1q0 1 -1.5 1.5t-2.5 1.5q-2 1 -7 3q-3 1 -9 1q-5 0 -10 -3q-5 -2 -8 -6q-4 -4 -5 -10q-2 -5 -2 -13t2 -13q1 -6 4.5 -10t8 -5.5t11.5 -1.5q5 0 9 1t7 2q2 1 4 3q2 1 3 1h1v-1l1 -1q-1 0 -1 -2v0zM717 -23q0 -10 -3 -17q-2 -8 -7 -13t-12.5 -8t-17.5 -3t-17 3
q-7 2 -12 7q-4 5 -7 13q-2 6 -2 17q0 9 2 16q3 8 8 13t12.5 8t17.5 3t17 -2q6 -3 11 -8q5 -4 7 -12q3 -7 3 -17zM705 -24q0 7 -2 13q-1 5 -4 10q-4 4 -8 6q-5 3 -12.5 3t-12.5 -3q-5 -2 -9 -6q-3 -5 -4 -10q-2 -7 -2 -12q0 -7 1.5 -13t4.5 -10t8 -6.5t13 -2.5t12 3q5 2 9 6
q3 4 4 10q2 7 2 12v0zM850 -61v-1l-1 -1h-2h-1h-2h-2h-1.5h-0.5l-1 1v1v68h-1l-30 -69h-1l-1 -1h-2h-2h-2h-1.5h-0.5h-0.5t-0.5 1h-1l-29 69v-68v-1l-1 -1h-2h-1.5h-1.5h-3h-0.5h-1.5v1q-1 0 -1 1v72q0 2 2 3q1 1 3 1h7h4q2 -1 3 -1q2 -1 2 -2q1 -1 1 -3l25 -57l26 57
q1 2 2 3l2 2t2 1h3h8h2l1 -1q1 0 1.5 -1t0.5 -2v-72zM988 -61v-1q0 -1 -1 -1h-2h-1h-1h-3h-1.5h-0.5l-1 1v1v68l-31 -69l-1 -1h-2h-3h-2h-1h-1l-1 1l-30 69v-68v-1q0 -1 -1 -1h-2h-1h-2h-2h-2l-1 1v1v72q0 2 1 3q2 1 3 1h7h4q2 -1 3 -1q2 -1 2 -2q1 -1 2 -3l24 -57h1l26 57
l1.5 3t1.5 2q1 0 3 1h2h8h2t2 -1l1 -1v-2v-72zM1097 -34q0 -7 -2 -13q-3 -6 -7 -9q-4 -4 -10 -6t-14 -2t-14 2t-10 6q-5 4 -6 9q-2 5 -2 12v49v1h1h2l1 0.5l1 0.5q2 0 3 -1h1h1h1v-1v-47q0 -5 1 -10q2 -4 4.5 -6.5t6.5 -3.5q5 -2 9 -2q5 0 9 1.5t7 4t4 6.5q1 3 1 9v48v1h1h2
t1.5 0.5t1.5 0.5q2 0 3 -1h1h1v-1v-48h1zM1206 -59v-2l-1 -1t-2 -1h-2h-3h-4l-2 1q-2 1 -3 3l-1 1.5t-2 1.5l-26 45q-1 1 -2.5 3.5t-2 3.5t-2 3.5t-1.5 3.5v-4v-5v-8v-47v-1l-1 -1h-2h-1.5h-1.5h-3h-1l-1 1v1v72q0 2 1.5 3t3.5 1h5h3q2 0 3 -0.5t2 -2.5l1 -1t1 -2l21 -34
q0 -1 1.5 -3t1.5 -3q3 -5 4 -6t2 -3t1 -3q1 -1 2 -3t1 -3v5.5v4.5v10v43l1 1h2h3h3h1h1q1 0 1 -1v-73h-1zM1262 -61v-1l-1 -1h-2h-1.5h-1.5h-3h-0.5h-1.5v1q-1 0 -1 1v75h1q0 1 1 1h2h1h1h3h1h1l1 -1v-75zM1364 -52v-1q0 -1 -1 -2l-0.5 -0.5t-0.5 -1.5l-1 -0.5t-2 -1.5
q-2 -1 -5 -2t-7 -2t-9 -1q-9 0 -16 2q-6 3 -11 8t-8 12q-2 8 -2 17q0 10 2 17q3 7 8 13q6 5 12.5 8t15.5 3q2 0 7 -1q4 -1 7 -1q2 -1 5 -3q2 -1 3 -2l1 -1l1 -1v-1v-2v-3v-1l-0.5 -0.5l-0.5 -0.5h-1t-2 1t-2.5 1.5t-2.5 1.5l-6 3q-3 1 -9 1t-11 -3q-4 -2 -8 -6t-5 -10
q-2 -5 -2 -13t2 -13q2 -6 5.5 -10t8 -5.5t10.5 -1.5t9 1q5 1 7 2t5 3q1 1 2 1h1q1 0 1 -1v-1v-2v0zM1465 -59v-2q0 -1 -0.5 -1.5t-1.5 -0.5h-4h-3h-0.5h-1.5l-1 1v0l-8 20h-36l-7 -19v-1q-1 -1 -2 -1h-1h-3h-4t-1.5 0.5t-0.5 1.5t1 2l29 73q0 1 0.5 1.5t1.5 0.5h2h3h4h1h1
q1 -1 1.5 -1t0.5 -1zM1427 5l-15 -39h30zM1543 11v-2q0 -1 -0.5 -1.5t-0.5 -1t-1 -0.5h-25v-67v-1q0 -1 -1 -1h-2h-1h-2h-2h-1.5h-0.5l-1 1v1v68h-25h-1l-1 1v1v1v1v2v1l1 1h1h61h1v-1q1 0 1 -0.5v-0.5v-2v0zM1588 -61v-1l-1 -1h-2h-1.5h-1.5h-3h-0.5h-1.5v1q-1 0 -1 1v75h1
q0 1 1 1h2h1h1h3h1h1l1 -1v-75zM1705 -23q0 -10 -3 -17q-2 -8 -7 -13t-12.5 -8t-17.5 -3t-17 3q-7 2 -12 7q-4 5 -7 13q-2 6 -2 17q0 9 2 16q3 8 8 13q4 5 12 8t17.5 3t16.5 -2q7 -3 12 -8q4 -4 7 -12q3 -7 3 -17zM1692 -24q0 7 -1 13q-1 5 -4 10q-4 4 -8 6q-6 3 -13.5 3
t-12.5 -3q-4 -2 -8 -6q-3 -5 -5 -10q-1 -7 -1 -12q0 -7 1.5 -13t4.5 -10q2 -4 7.5 -6.5t12.5 -2.5q8 0 13 3q5 2 8 6t5 10q1 5 1 12v0zM1809 -59v-2q-1 0 -1 -1l-2 -1h-2h-4h-3l-2 1q-2 1 -3 3l-1 1.5l-1 1.5l-27 45q-1 1 -2.5 3.5t-1.5 3.5q-2 4 -4 7v-4v-5v-8v-47v-1
q-1 -1 -2 -1h-1h-2h-1h-3h-1l-1 1q-1 0 -1 1v72q0 2 2 3t3 1h6h3q2 0 2.5 -0.5l2.5 -2.5v-1l2 -2l20 -34q1 -1 2.5 -3t2 -3l1.5 -3t1 -3l4 -6q0 -1 1 -3t2 -3v5.5v4.5v10v43q0 1 1 1h2h3h3h1t1 -1h1v-73h-1zM1900 -41q0 -5 -3 -10q-2 -5 -6 -7q-4 -3 -9.5 -4.5t-11.5 -1.5
h-8q-2 1 -7 2l-5 2q-2 1 -2.5 1.5t-0.5 2.5q-1 0 -1 3v2l1 1l1 1h1t2 -1l5 -2q3 -2 6 -2q3 -1 9 -1q4 0 7 0.5t5 2.5q3 2 4 4t1 5.5t-2 5.5q-1 2 -4 4l-6 3q-1 1 -3.5 2t-3.5 1q-5 3 -8 4l-6 4q-2 2 -5 6q-1 3 -1 8q0 6 2 9t5 6q4 3 8 4q6 2 11 2q2 0 6 -1q1 0 3 -0.5
l2 -0.5q4 -1 5 -1q2 -1 3 -2v-1l0.5 -0.5l0.5 -0.5v-1v-2v-2v-1l-1 -1h-1l-2 1h-1q-2 1 -3 1q-2 2 -5.5 2.5t-7 0.5t-5.5 -1q-3 0 -5 -2t-2 -4q-1 -2 -1 -4q0 -3 1.5 -5.5t4.5 -4.5l6 -3q5 -2 8 -3q5 -2 7 -3q4 -3 6 -5q2 -1 5 -6l0.5 -2.5t0.5 -4.5v0zM66 -62v1l-7 -1h7z
M333 38q-19 -1 -35 1.5t-25.5 5t-18.5 7.5t-12.5 7.5t-9 7.5t-5.5 6q-13 28 -11.5 50t13 37t25 24.5t23.5 13.5l11 5q-15 -28 -3 -58.5t50 -45.5q45 -18 99 23q10 7 20 17.5t14 16.5l5 7l25 -34q-14 -18 -28 -29q-67 -62 -137 -62zM299 220q-16 -21 -18.5 -44.5t11.5 -44.5
l-114 -4q-7 11 -13.5 24.5t-9.5 21.5l-2 8q-4 1 -11 2t-26.5 7.5t-37 16.5t-40 29.5t-38.5 45.5l21 -12l25.5 -14.5t30 -13.5t36 -10.5t41 -3t48.5 6.5q32 7 76.5 36.5t73.5 55.5l29 26q2 -10 1 -20t-4 -17l-3 -8q-47 -51 -76 -88zM19 330q56 97 161 109q23 1 40.5 1
t35.5 -6t30.5 -11t25 -13.5l19.5 -13.5t14.5 -11.5t8.5 -7.5q-66 28 -115.5 34.5t-105 -12t-114.5 -69.5zM498 129q-14 -17 -28 -29q-67 -62 -137 -62q-19 -1 -35 1.5t-25.5 5t-18.5 7.5t-12.5 7.5t-9 7.5l-5.5 5q-71 -20 -122 -75q-13 -14 -23 -29t-13 -22l-3 -8h-46
q0 8 14 34q7 14 17 30t29 41.5t45 47.5t54 34q-7 11 -14 25t-10 23l-2 8q-4 1 -11 2t-26.5 7.5t-37 16.5t-40 29.5t-38.5 45.5l21 -12l25.5 -14.5t30 -13.5t36 -10.5t41 -3t48.5 6.5q32 7 76.5 36.5t73.5 55.5l29 26q2 -10 1 -20t-4 -17l-3 -8q-47 -51 -76 -88
q-16 -21 -18.5 -44t11.5 -44t43 -33q45 -18 100 23q10 7 19.5 17.5t14.5 16.5l4 7zM121 310.5q0 21.5 15 36t36 14.5t36 -14.5t15 -36t-15 -36t-36 -14.5t-36 14.5t-15 36zM583 173q0 -2 -1 -3q-1 -2 -3 -2q-1 0 -6 -2h-9h-8q-4 1 -6 2t-3 2t-1 3v263q0 1 1 3q1 1 4 1
q0 1 2.5 1.5l2.5 0.5h9h8l6 -1.5t3 -1.5q1 -2 1 -3v-263zM934 172q0 -1 -1 -3l-3 -2q-2 -1 -5 -1h-8h-9q-3 0 -5 1t-3 2q-1 2 -1 3v116q0 12 -2 22t-7 18q-5 7 -12 11q-7 3 -17 3q-12 0 -24 -9t-27 -27v-133q0 -2 -1 -3q0 -1 -2.5 -2t-5.5 -2h-8h-9q-2 1 -5 2q-1 0 -3 2v3
v115q0 12 -3 23q-2 10 -7 17t-12 11t-16 4q-12 0 -25 -10q-12 -9 -26 -27v-133q0 -2 -1 -3t-3 -2t-5 -1q-5 -1 -9 -1t-8 1q-3 0 -6 1l-2 2t-1 3v190v3q1 1 3 2t5 1q2 1 7 1q6 0 8 -1q4 0 5.5 -1t2.5 -2v-3v-25q16 18 32 26q14 9 30 9q13 0 22 -3q10 -3 16 -8q7 -4 13 -12
q5 -6 8 -15q9 10 18 17q8 7 17 12q8 4 15 6t15 2q19 0 31.5 -6.5t19.5 -16.5q8 -12 11 -26q4 -14 4 -30v-121h-1zM1141 172q0 -3 -1 -4t-5 -2h-8h-9q-4 1 -5 2q-2 1 -2 4v19q-13 -14 -27 -21q-16 -7 -33 -7q-15 0 -27 4q-13 4 -21 12q-9 7 -13 18q-5 11 -5 24q0 16 6 28
q7 12 19.5 20t30 12t39.5 4h26v15q0 11 -2 19.5t-7.5 14t-13.5 8.5t-20 3q-13 0 -23 -3q-12 -4 -18 -7q-4 -2 -13 -7q-5 -3 -8 -3q-2 0 -3 1q-2 1 -2 2q-1 2 -2 5v6q0 5 0.5 8t3.5 6t10 6q8 5 16 7q9 3 20 5q10 2 22 2q20 0 35 -4q15 -5 23 -14q9 -9 13 -22.5t4 -31.5v-129z
M1107 259h-30q-15 0 -25 -2q-11 -3 -18 -8t-10 -11q-3 -7 -3 -15q0 -15 9 -24t27 -9q13 0 25 7t25 21v41zM1365 354q0 -7 -2 -11q-2 -3 -5 -3h-28q8 -8 11 -16q3 -10 3 -20q0 -16 -6 -29q-5 -12 -15 -21q-9 -9 -23 -14q-13 -4 -31 -4q-11 0 -22 3t-16 7q-4 -3 -6 -8t-2 -12
t7 -12t18 -5l50 -2q14 -1 26 -4q12 -4 20 -10q9 -7 14 -16.5t5 -22t-6 -24.5q-6 -13 -16 -21q-12 -9 -29 -14t-42 -5q-23 0 -39 4q-17 4 -27 10.5t-15 16.5q-4 8 -4 20q0 7 1 14q2 6 5 12q4 7 9 11q6 6 12 11q-10 5 -16 13q-4 8 -4 17q0 13 5.5 23.5t12.5 18.5q-6 8 -10 18
t-4 23q0 16 6 30q5 13 15 21.5t23.5 13.5t29.5 5q9 0 16 -1q6 -1 14 -3h58q4 0 5 -3q2 -4 2 -11zM1328 153q0 13 -10 19q-10 7 -27 7l-50 2q-6 -5 -11 -10q-4 -4 -7 -9q-3 -6 -3 -9q-1 -5 -1 -9q0 -14 14 -20q13 -7 39 -7q15 0 26 3t18 8q6 5 9 11q3 8 3 14zM1310 304
q0 20 -11 31q-10 10 -30 10q-10 0 -18 -3q-7 -3 -12 -10q-5 -6 -7.5 -13.5t-2.5 -16.5q0 -18 11 -29q10 -11 30 -11q10 0 18 3q7 3 12.5 9.5t7.5 13.5q2 9 2 16zM1445 172q0 -1 -1 -2.5t-3 -2.5t-5 -1h-9h-8q-3 0 -6 1l-2 2q-1 2 -1 3v191q0 1 1 3l2 2q3 1 6 1q4 1 8 1t9 -1
q3 0 5 -1t3 -2q1 -2 1 -3v-191zM1407 427q0 9 6 15t15 6t15 -6t6 -15t-6 -15.5t-15 -6.5t-15 6.5t-6 15.5zM1673 172q0 -1 -1 -3l-2 -2q-3 -1 -6 -1h-8h-9q-3 0 -5 1q-1 1 -3 2q-1 2 -1 3v112q0 16 -2 26t-8 17q-4 7 -12 11t-18 4q-13 0 -26 -9q-14 -10 -28 -28v-133v-3
q-1 0 -3 -2q-3 -1 -6 -1h-8h-9q-2 0 -5 1q-1 1 -3 2v3v191v3q1 1 3 2t4 1q2 1 8 1t8 -1q3 0 4.5 -1t2.5 -2t1 -3v-25q16 18 32 26.5t33 8.5q19 0 32 -6.5t21 -17.5t11 -25q4 -15 4 -35v-117h-1zM1900 276q0 -8 -4 -12t-10 -4h-126q0 -16 3.5 -28.5t10.5 -21.5t20 -14
q11 -5 29 -5q13 0 24 2l18 5q9 3 13 5q5 2 8 2q1 0 2 -1q1 0 2 -2q1 -1 1 -4v-6v-5v-2v-2q-1 -1 -1 -3q-2 -1 -2 -2q-2 -2 -7 -4t-15 -5q-11 -3 -21 -4q-12 -2 -26 -2q-23 0 -41 6q-18 7 -30 19q-11 13 -18 33q-6 20 -6 45q0 24 6 44q7 21 19 33q12 14 28 21q17 8 38 8
q23 0 38.5 -7.5t26.5 -19.5q10 -13 14 -29q5 -16 5 -35v-5h1zM1864 286q1 27 -12 43t-38 16q-13 0 -23 -5t-17 -13q-6 -8 -9.5 -18.5t-4.5 -22.5h104zM1940 -42h-8v-22h-3v22h-9v3h20v-3zM1972 -64h-3v22l-9 -22h-2l-9 22v-22h-3v25h6l7 -18l8 18h6v-25h-1z" />
    <glyph glyph-name="uniF130" unicode="&#xf130;" 
d="M19 335q59 98 163 111q24 2 41.5 1.5t36 -6.5t31 -11t26 -13.5t20.5 -14l14 -11.5t9 -7q-67 28 -117.5 34.5t-107 -13t-116.5 -70.5zM507 131q-15 -18 -25 -32q-70 -64 -140 -64q-19 0 -35.5 2.5t-26.5 5t-19 7.5t-12.5 7.5t-8.5 7.5l-6 6q-73 -22 -124 -77
q-14 -14 -24 -29t-13 -23l-4 -8h-46q0 7 14 36q7 14 17.5 30.5t29.5 42t45.5 48t54.5 35.5q-7 11 -13.5 25t-9.5 23l-3 8q-4 1 -11 2t-27 8t-38.5 17t-41 30t-38.5 46q7 -3 21.5 -11.5l26 -15t30 -13.5t36.5 -10.5t42 -3.5t49 6q33 8 78.5 38t74.5 56l30 27q2 -10 1 -20
t-4 -18l-3 -8l-78 -91q-17 -20 -19.5 -43.5t11.5 -45t44 -33.5q44 -18 101 23q10 8 20 18.5t14 17.5l5 7zM122 315q0 21 15 36.5t36.5 15.5t36.5 -15.5t15 -36.5t-15 -36t-36.5 -15t-36.5 15t-15 36z" />
    <glyph glyph-name="uniF131" unicode="&#xf131;" 
d="M0 448h242v-170v-86v-256h-44v301l-78 83z" />
    <glyph glyph-name="uniF132" unicode="&#xf132;" 
d="M270 448l-134 -128l-94 -89v-295h-42v256v86v170h270z" />
    <glyph glyph-name="uniF133" unicode="&#xf133;" 
d="M648 337q14 -65 14.5 -144.5t-11.5 -142.5q-20 -75 -88 -89q-105 -23 -229.5 -23t-229.5 23q-74 20 -88 89q-14 64 -14 142.5t14 144.5q14 70 85 89q104 24 229 24t229 -24q75 -20 89 -89zM436 176q25 15 0 35q-25 17 -74 53.5t-74 53.5q-7 7 -13 10q-19 -5 -19 -25v-215
q0 -19 9 -22q12 -8 23 3q25 17 74 53.5t74 53.5z" />
    <glyph glyph-name="uniF134" unicode="&#xf134;" 
d="M0 400q0 20 14 34t34 14t34.5 -14t14.5 -34t-14.5 -34.5t-34.5 -14.5t-34 14.5t-14 34.5zM0 191q0 20 14 34t34 14t34.5 -14t14.5 -34t-14.5 -34.5t-34.5 -14.5t-34 14.5t-14 34.5zM0 -16q0 20 14 34.5t34 14.5t34.5 -14.5t14.5 -34.5t-14.5 -34t-34.5 -14t-34 14t-14 34
z" />
    <glyph glyph-name="uniF135" unicode="&#xf135;" 
d="M713 194v-170q0 -19 -3 -22.5t-23 -3.5h-17q-17 0 -30 11l-54 44l-54 43q-8 7 -11 5q-4 -1 -4 -12q-1 -22 -4.5 -25.5t-25.5 -3.5q-9 0 -21 -0.5t-15 0.5t-8 0.5t-7.5 3.5t-5.5 6.5t-9.5 12t-12.5 16.5l-163 217q-8 10 -7 13t3.5 3.5t7 0l4.5 -0.5h244q13 0 16.5 -3
t4.5 -17q0 -2 -1 -8.5t0 -10.5t4 -5q3 -2 6.5 0t8 6.5l6.5 6.5q75 59 90 73q24 19 53 18q22 -1 25.5 -4.5t3.5 -24.5q-1 -57 -1 -169zM141 60h-121q-13 0 -16 3t-3 17q-1 78 -1 233q0 13 3.5 16t16.5 3h43q14 0 23 -11l185 -248q5 -8 5 -10q-2 -3 -12 -3h-123zM446 -62
q-24 0 -33 5.5t-23 23.5l-192 255l-156 206q-11 14 -9 16q1 3 17 3h41q14 0 22 -11l100.5 -132.5l76.5 -101.5l190 -250q1 -1 5 -6q6 -8 -4 -8h-35z" />
    <glyph glyph-name="uniF136" unicode="&#xf136;" 
d="M63 192q-13 0 -13 13t13 13h102q13 0 13 -13t-13 -13h-102zM63 255q-13 0 -13 13t13 13h206q13 0 13 -13t-13 -13h-206zM63 315q-6 0 -9.5 4t-3.5 9q0 13 13 13h143q13 0 13 -13t-13 -13h-143zM342 179q26 -18 42 -47.5t18 -62.5q0 -55 -39 -94t-94 -39q-70 0 -110 57
h-138q-8 0 -14.5 7t-6.5 14v413q0 8 6.5 14.5t14.5 6.5h300q8 0 14.5 -6.5t6.5 -14.5v-248zM167 155q43 47 102 47q16 0 47 -10v230h-290v-400h120q-10 18 -10 47q0 33 16 60h-89q-13 0 -13 13t13 13h104zM277 -1q17 0 28.5 11t13.5 33q0 10 -3 17.5t-10.5 13t-11.5 7.5
l-14 7v31q7 0 14 -3l6 -2q4 0 7.5 6.5t3.5 11.5q0 4 -10.5 8.5t-23.5 4.5v5q0 5 -5.5 5t-5.5 -5v-8q-17 -2 -29 -12.5t-12 -28.5q0 -11 3 -18t11.5 -13t11.5 -7.5t15 -6.5v-34q-8 0 -15 2.5t-11 5.5t-5 3q-4 0 -8.5 -7t-4.5 -11.5t5 -8.5t15.5 -7t23.5 -3v-8q0 -5 5.5 -5
t5.5 5v11zM253 106q0 7 11 10v-23q-11 5 -11 13zM277 54q8 -8 8 -14q0 -9 -8 -13v27z" />
    <glyph glyph-name="uniF137" unicode="&#xf137;" 
d="M178 204.5q0 -4.5 -4 -8.5t-9 -4h-103q-5 0 -8.5 4t-3.5 8.5t3.5 8.5t8.5 4h103q5 0 9 -4t4 -8.5zM281 266.5q0 -4.5 -4 -8.5t-9 -4h-206q-5 0 -8.5 4t-3.5 8.5t3.5 8.5t8.5 4h206q5 0 9 -4t4 -8.5zM219 328.5q0 -4.5 -4 -8.5t-9 -4h-144q-5 0 -8.5 4t-3.5 8.5t3.5 8.5
t8.5 4h144q5 0 9 -4t4 -8.5zM343 178q27 -18 43 -47.5t15 -62.5q0 -54 -38.5 -93t-94.5 -39q-68 0 -109 58h-138q-10 0 -15.5 5.5t-5.5 14.5v413q0 10 5.5 15.5t15.5 5.5h301q9 0 15 -5.5t6 -15.5v-249zM277 14v9q0 6 -13 6h-6q-12 0 -12 -6v-9v-10q0 -6 12 -6h6q13 0 13 6
v10zM275 50q1 7 11 14.5t20 18t12 24.5q0 17 -12.5 27.5t-32.5 10.5q-40 0 -40 -17q0 -4 4 -10.5t9 -6.5l3.5 2t8.5 3.5t10 1.5q15 0 15 -13q0 -4 -16.5 -22t-16.5 -33q0 -7 10 -7h4q7 0 11 7zM322 190v237h-301v-413h128q-13 25 -13 54q0 34 15 60h-89q-5 0 -8.5 4
t-3.5 8.5t3.5 8.5t8.5 4h105q41 47 101 47q27 0 54 -10z" />
    <glyph glyph-name="uniF138" unicode="&#xf138;" 
d="M223.5 -64q-92.5 0 -158 65.5t-65.5 158.5q0 53 23.5 99.5t67.5 78.5q9 10 22 -3q5 -6 3.5 -13.5t-6.5 -12.5q-34 -27 -54 -66.5t-20 -82.5q0 -78 55 -133t132.5 -55t133 55t55.5 133q0 75 -53.5 130t-128.5 58q-7 0 -12.5 6t-3.5 13q-3 7 1.5 11.5t14.5 4.5
q90 -2 153.5 -67.5t63.5 -155.5q0 -93 -65.5 -158.5t-158 -65.5zM288 250q-8 0 -13 10l-77 107l110 78q5 4 13 3t13 -6q9 -14 -3 -26l-81 -55l55 -82q4 -5 3 -12.5t-7 -12.5q-1 0 -5 -2t-8 -2z" />
    <glyph glyph-name="uniF139" unicode="&#xf139;" 
d="M355 -64q-9 0 -15 6t-6 15v347q0 10 6 15.5t15 5.5h43q9 0 15 -5.5t6 -15.5v-347q0 -9 -6 -15t-15 -6h-43zM243 -64q-9 0 -15 6t-6 15v263q0 9 6 15t15 6h43q9 0 15 -6t6 -15v-263q0 -9 -6 -15t-15 -6h-43zM21 -64q-9 0 -15 6t-6 15v220q0 10 6 15.5t15 5.5h42
q10 0 16 -5.5t6 -15.5v-220q0 -9 -6 -15t-16 -6h-42zM133 -64q-9 0 -15 6t-6 15v313q0 10 6 15.5t15 5.5h43q9 0 15 -5.5t6 -15.5v-313q0 -9 -6 -15t-15 -6h-43zM377 448q14 0 23.5 -9t9.5 -23t-9.5 -24t-23.5 -10q-12 0 -22 7l-57 -32v-2q0 -14 -9.5 -24t-24.5 -10
q-12 0 -21 8t-10 20l-51 12q-13 -12 -28 -12q-9 0 -19 6l-59 -36v-4q0 -15 -9.5 -24.5t-24.5 -9.5q-14 0 -24 9t-10 23t10 23.5t24 9.5q13 0 19 -6l60 36v4q0 15 9.5 24.5t23.5 9.5q13 0 22 -8t10 -19l51 -13q13 13 27 13q12 0 22 -7l57 32v2q0 14 9.5 24t24.5 10z" />
    <glyph glyph-name="uniF13A" unicode="&#xf13a;" 
d="M232 325q79 0 133.5 -56t54.5 -138q2 -79 -57 -137t-141 -58h-92q-13 0 -20.5 8t-7.5 19t8.5 19.5t19.5 8.5h92q59 0 103 41t44 95q0 58 -38 97.5t-92 39.5h-7v-82q0 -28 -12 -36t-32 5l-168 113q-20 12 -20 30t20 31q48 31 168 116q20 13 32 5t12 -36v-85z" />
    <glyph glyph-name="uniF13B" unicode="&#xf13b;" 
d="M253 448q107 0 181.5 -75t72.5 -178q0 -106 -75.5 -181t-180.5 -75q-67 0 -124 31.5t-91.5 87t-38.5 121.5q16 -5 28 -5q10 0 25 5q6 -79 64.5 -133.5t138.5 -54.5q85 0 144.5 59.5t59.5 144t-59.5 144t-144.5 59.5q-72 0 -128 -48l26 -25q9 -10 2 -20q-1 0 -3.5 -1.5
t-3.5 -1.5q-71 -10 -103 -15q-19 -3 -15 15l15 103q4 9 7 10q8 3 15 -5l25 -25q67 63 163 63zM376 89l-17 -17l-95 95q-5 -3 -11 -3q-11 0 -19 8.5t-8 19.5q0 19 17 28v133h26v-133q15 -10 15 -25q0 -3 -1.5 -6.5t-1.5 -4.5z" />
    <glyph glyph-name="uniF13C" unicode="&#xf13c;" 
d="M294 85l-17 17q-38 -25 -85 -25q-77 -3 -133 49.5t-59 129.5t49.5 133t129.5 59t133 -49.5t59 -129.5q6 -60 -38 -120l17 -17zM192 124q58 3 96.5 45t35.5 100t-45 96.5t-100 35.5t-96.5 -45.5t-35.5 -99.5q3 -58 45.5 -96.5t99.5 -35.5zM495 -4q10 -10 10 -24.5
t-10 -26.5q-10 -10 -26 -10t-25 10l-128 119l55 47z" />
    <glyph glyph-name="uniF13D" unicode="&#xf13d;" 
d="M292 236q13 13 42 15t52 0t41 7q18 10 23.5 27t-6.5 34t-42 27l-334 98q-40 12 -57 -6t-7 -58q43 -160 98 -338q8 -24 25 -35.5t35 -8t28 17.5q8 13 8 68.5t14 71.5l215 -216q10 -10 34.5 5t40.5 39.5t6 36.5z" />
    <glyph glyph-name="uniF13E" unicode="&#xf13e;" 
d="M83 354q-25 0 -40 -12v66q0 17 11.5 28.5t28.5 11.5q15 0 27.5 -11.5t12.5 -28.5v-69q-19 15 -40 15zM83 219q25 0 40 12v-252q0 -17 -11.5 -28.5t-28.5 -11.5t-28.5 11.5t-11.5 28.5v254q19 -14 40 -14zM263 28q21 0 40 14v-66q0 -17 -11.5 -28.5t-28.5 -11.5
t-28.5 11.5t-11.5 28.5v66q19 -14 40 -14zM263 165q-17 0 -40 -12v255q0 17 11.5 28.5t28.5 11.5t28.5 -11.5t11.5 -28.5v-257q-19 14 -40 14zM443 354q-24 0 -40 -12v66q0 17 11.5 28.5t29 11.5t28.5 -11.5t11 -28.5v-69q-19 15 -40 15zM443 219q25 0 40 12v-252
q0 -17 -11 -28.5t-28.5 -11.5t-29 11.5t-11.5 28.5v254q19 -14 40 -14zM83 368q34 0 58.5 -24t24.5 -56q0 -35 -24.5 -59t-58.5 -24t-58.5 24t-24.5 59q0 32 24.5 56t58.5 24zM83 233q22 0 38 16t16 39t-15 38.5t-39 15.5t-39 -15.5t-15 -39t15 -39t39 -15.5zM443.5 368
q34.5 0 58.5 -24.5t24 -58.5t-24 -58.5t-58.5 -24.5t-59 24.5t-24.5 58.5t24.5 58.5t59 24.5zM443 233q22 0 38.5 16t16.5 39t-15.5 38.5t-39 15.5t-39 -15.5t-15.5 -38.5t16 -39t38 -16zM263 179q34 0 58.5 -24t24.5 -58.5t-24.5 -59t-58.5 -24.5t-58.5 24.5t-24.5 59
t24.5 58.5t58.5 24zM263 42q22 0 38 15.5t16 38.5q0 24 -15 39.5t-38.5 15.5t-39 -15.5t-15.5 -39.5q0 -23 16 -38.5t38 -15.5z" />
    <glyph glyph-name="uniF13F" unicode="&#xf13f;" 
d="M407 448h19l10.5 -2.5t12.5 -3.5t11 -5l-4 -4l-56 -56q-2 -1 -4 -2.5t-3 -2.5t-1 -2q-8 -9 -6.5 -21t10.5 -21q24 -17 45 4l60 60l4 4q13 -28 7 -60q-8 -42 -47 -63.5t-76 -7.5q-4 0 -8 -4l-190 -190v-8q9 -24 3 -49q-5 -33 -30 -54t-59 -24q-23 0 -45 11l4 4l56 56
q1 1 3 2.5t3 2.5t1 2q8 9 6.5 21t-10.5 21q-23 17 -45 -4l-59 -60l-4 -4v4q-2 6 -4 15t-4 15v19v3q6 47 44.5 70t79.5 9q4 -4 7 0l191 190v8q-4 15 -4 41q3 31 21.5 52.5t49.5 29.5q4 4 11 4zM516 -12v-7l-2.5 -7.5t-2 -7t-2.5 -6t-4 -5.5q-13 -19 -30 -19h-12q-20 5 -37 22
l-146 146l-3 4l67 67l4 -4l145 -145q18 -18 23 -38zM0 414l34 34q18 -11 63 -34q2 -1 4 -2.5t3 -2t1 -2.5q12 -30 30 -60l7 -7l75 -75l3 -4q-16 -17 -33 -33l-4 3l-75 75q0 3 -2 5t-5 2l-20.5 10l-22 10.5t-17.5 9.5q-3 0 -5 2.5t-2 5.5l-17 31.5z" />
    <glyph glyph-name="uniF140" unicode="&#xf140;" 
d="M0 369v40h158v-40h-158zM276 172h-79v40h79v-40zM79 172h-79v40h79v-40zM0 -25v40h276v-40h-276zM528 448q30 0 41 -17.5t-6 -41.5l-61 -78l-69 -87v-249l-79 -39v291l-52 72.5l-66 89.5q-20 24 -9.5 41.5t41.5 17.5h130h130z" />
    <glyph glyph-name="uniF141" unicode="&#xf141;" 
d="M221 -63q-61 0 -104 43.5t-43 104t43 104t104 43.5q15 0 24.5 -10t9.5 -24.5t-9.5 -24.5t-24.5 -10q-33 0 -56 -22.5t-23 -56t23 -56t56 -22.5t56 22.5t23 55.5q0 15 9.5 25t24.5 10t24.5 -10t9.5 -25q0 -60 -43 -103.5t-104 -43.5zM435 151q-15 0 -25 9.5t-10 24.5
t10 25t25 10q33 0 55.5 22.5t22.5 55.5t-22.5 56t-55.5 23t-56 -23t-23 -56q0 -15 -9.5 -24.5t-24.5 -9.5t-25 9.5t-10 24.5q0 61 43.5 104t104 43t104 -43t43.5 -104t-43.5 -104t-103.5 -43zM481 21q-7 0 -12 5l-305 304q-12 12 0.5 24.5t24.5 0.5l305 -305q12 -12 0 -24
q-10 -5 -13 -5z" />
    <glyph glyph-name="uniF142" unicode="&#xf142;" 
d="M295 85l-18 17q-42 -25 -85 -25q-78 -2 -134 50t-58 129q-2 78 50 134t129 58q78 2 134 -49.5t58 -127.5q0 -68 -41 -121l18 -17zM189 125q58 2 97 43t39 98q-2 57 -44.5 96.5t-98.5 37.5q-59 -2 -98 -43t-39 -98q2 -57 44.5 -96.5t99.5 -37.5zM494 -3q11 -10 12 -25
t-9 -26q-9 -11 -24 -11.5t-27 9.5l-128 118l53 48zM156 193l-53 56l18 17l35 -37l94 93l17 -18z" />
    <glyph glyph-name="uniF143" unicode="&#xf143;" 
d="M768 397q0 -23 -14 -37t-37 -14h-512q-23 0 -37 14t-14 37t14 37t37 14h512q23 0 37 -14t14 -37zM768 192q0 -23 -14 -37t-37 -14h-512q-23 0 -37 14t-14 37t14 37t37 14h512q23 0 37 -14t14 -37zM768 -13q0 -23 -14 -37t-37 -14h-512q-23 0 -37 14t-14 37t14 37t37 14
h512q23 0 37 -14t14 -37zM102 397q0 -23 -14 -37t-37 -14t-37 14t-14 37t14 37t37 14q22 0 36.5 -15.5t14.5 -35.5zM102 192q0 -23 -14 -37t-37 -14t-37 14t-14 37t14 37t37 14q22 0 36.5 -15.5t14.5 -35.5zM102 -13q0 -23 -14 -37t-37 -14t-37 14t-14 37t14 37t37 14
q22 0 36.5 -15.5t14.5 -35.5z" />
    <glyph glyph-name="uniF144" unicode="&#xf144;" 
d="M532 397q0 -23 -14 -37t-37 -14h-205q-23 0 -37 14t-14 37t14 37t37 14h205q23 0 37 -14t14 -37zM532 192q0 -23 -14 -37t-37 -14h-205q-23 0 -37 14t-14 37t14 37t37 14h205q23 0 37 -14t14 -37zM532 -13q0 -23 -14 -37t-37 -14h-205q-23 0 -37 14t-14 37t14 37t37 14
h205q23 0 37 -14t14 -37zM102 397q0 -23 -14 -37t-37 -14t-37 14t-14 37t14 37t37 14t37 -14t14 -37zM102 192q0 -23 -14 -37t-37 -14t-37 14t-14 37t14 37t37 14t37 -14t14 -37zM102 -13q0 -23 -14 -37t-37 -14t-37 14t-14 37t14 37t37 14t37 -14t14 -37z" />
    <glyph glyph-name="uniF145" unicode="&#xf145;" 
d="M556 28q16 -28 4 -55.5t-42 -34.5q-7 -2 -21 -2h-215h-217q-17 0 -30.5 6t-22.5 20q-22 31 -3 67l71 123l74 131.5l75 131.5q19 33 54 33t54 -33zM282 30q13 0 22.5 9.5t9.5 22.5t-9 22t-22 9q-14 0 -23 -9t-9 -22t9 -22.5t22 -9.5zM313 198q6 31 5 49q-1 37 -11 61
q-10 22 -25 22t-24 -22q-15 -36 -11 -79q4 -41 28 -111q3 -8 8 -8t7 8q15 40 23 80z" />
    <glyph glyph-name="uniF146" unicode="&#xf146;" 
d="M584 31q24 -44 9 -70t-63 -30h-462q-47 0 -62.5 27.5t8.5 68.5l106.5 171t124.5 209q23 41 54 41t54 -41z" />
    <glyph glyph-name="uniF147" unicode="&#xf147;" 
d="M127 95l19.5 -7.5t39.5 -7.5q26 0 43 15t17 42q0 26 -18 40.5t-52 14.5h-34q-6 0 -8 2.5t-2 9.5l7 115q0 12 13 12h104q7 0 7 -12v-5q0 -13 -7 -13h-87l-5 -82h20q38 0 66 -19t28 -63q0 -46 -27.5 -66.5t-66.5 -20.5q-21 0 -38.5 4.5t-25.5 9.5t-8 9q0 7 5.5 14.5
t9.5 7.5zM306 88q0 7 15 7h7q15 0 15 -7v-25q0 -8 -15 -8h-7q-15 0 -15 8v25zM380 70q0 13 8 13h67v211l-70 -13q-7 0 -7 20q0 8 7 8l92 20q13 0 13 -8v-238h57q7 0 7 -13v-5q0 -12 -7 -12h-159q-8 0 -8 12v5zM574 -64h-497q-32 0 -54.5 22.5t-22.5 54.5v355q-2 34 20.5 57
t56.5 23h497q32 0 54.5 -22.5t22.5 -54.5v-355q0 -34 -22.5 -57t-54.5 -23zM77 408q-16 0 -26.5 -11t-10.5 -26v-355q0 -17 11 -27.5t26 -10.5h497q16 0 26.5 11t10.5 27v355q0 16 -11 26.5t-26 10.5h-497z" />
    <glyph glyph-name="uniF148" unicode="&#xf148;" 
d="M577 448q33 0 56 -22.5t21 -54.5v-355q0 -32 -23 -55t-54 -23h-500q-32 0 -54.5 23t-22.5 55v355q0 32 22.5 54.5t54.5 22.5h500zM189 45q48 0 74 24.5t28 67.5q0 47 -29.5 68.5t-72.5 21.5h-15l5 67h79q15 0 15 17v5q0 18 -15 18h-104q-20 0 -20 -18l-7 -114
q0 -17 17 -17h35q65 0 65 -48q0 -27 -16.5 -39.5t-38.5 -12.5q-27 0 -47 10q-10 5 -13 5q-7 0 -13.5 -8.5t-6.5 -16.5q0 -13 23.5 -21.5t56.5 -8.5zM353 63v25q0 15 -22 15h-8q-22 0 -22 -15v-25q0 -15 22 -15h8q22 0 22 15zM564 65h3v5q0 18 -15 18h-52v233q0 15 -20 15
l-92 -20q-13 0 -13 -12q0 -27 15 -27l62 9v-198h-62q-15 0 -15 -18v-5q0 -17 15 -17h159q15 0 15 17z" />
    <glyph glyph-name="uniF149" unicode="&#xf149;" 
d="M139 65l115 236h-125q-7 0 -7 10v5q0 13 7 13h154q2 0 5 -7.5t3 -12.5v-5l-117 -244q-4 -7 -15 -7h-5q-17 0 -17 7q0 2 1 3t1 2zM288 88q0 7 15 7h8q15 0 15 -7v-25q0 -8 -15 -8h-8q-15 0 -15 8v25zM380 70q0 13 8 13h67v211l-70 -13q-7 0 -7 20q0 8 7 8l92 20
q13 0 13 -8v-238h57q7 0 7 -13v-5q0 -12 -7 -12h-159q-8 0 -8 12v5zM574 -64h-497q-32 0 -54.5 22.5t-22.5 54.5v355q-2 34 20.5 57t56.5 23h497q32 0 54.5 -22.5t22.5 -54.5v-355q0 -34 -22.5 -57t-54.5 -23zM77 408q-16 0 -26.5 -11t-10.5 -26v-355q0 -17 11 -27.5
t26 -10.5h497q16 0 26.5 11t10.5 27v355q0 16 -11 26.5t-26 10.5h-497z" />
    <glyph glyph-name="uniF14A" unicode="&#xf14a;" 
d="M577 448q33 0 56 -22.5t21 -54.5v-355q0 -32 -23 -55t-54 -23h-500q-32 0 -54.5 23t-22.5 55v355q0 32 22.5 54.5t54.5 22.5h500zM162 48q12 0 22 5l117 246v7q0 8 -4.5 18t-10.5 10h-154q-15 0 -15 -18v-2q0 -20 15 -20h114l-109 -226v-3q-3 0 -3 -5q0 -12 23 -12h5z
M333 63v25q0 15 -22 15h-8q-22 0 -22 -15v-25q0 -15 22 -15h8q22 0 22 15zM564 65h3v5q0 18 -15 18h-52v233q0 15 -20 15l-92 -20q-13 0 -13 -12q0 -27 15 -27l62 9v-198h-62q-15 0 -15 -18v-5q0 -17 15 -17h159q15 0 15 17z" />
    <glyph glyph-name="uniF14B" unicode="&#xf14b;" 
d="M87 -53h-23q-28 0 -43 14.5t-15 39.5v366q0 28 20 48t48 20h43q27 1 47.5 -19t20.5 -49v-267h-23v267q0 19 -13.5 32t-31.5 13h-43q-19 0 -32.5 -13.5t-13.5 -31.5v-366q0 -31 36 -31h23q11 0 19.5 7.5t8.5 18.5v341l-0.5 3.5t-1 5l-1.5 4.5t-2.5 5l-3 4t-4.5 3t-7 1h-1
q-19 0 -19 -26v-233h-22v233q0 21 11.5 34.5t29.5 13.5h1q19 0 30.5 -13t11.5 -35v-341q0 -20 -15 -34.5t-35 -14.5z" />
    <glyph glyph-name="uniF14C" unicode="&#xf14c;" 
d="M258 10q0 -13 -8.5 -18.5t-20.5 -0.5l-120 98h-84q-7 0 -12.5 5.5t-5.5 12.5v166q0 7 5.5 12.5t12.5 5.5h85l119 98q12 5 20.5 -0.5t8.5 -18.5v-360zM457 -18q-4 -6 -9 -1l-30 29q-5 5 -3 11l7.5 7.5t16 21.5t20.5 35t16.5 46.5t7.5 58.5t-7 58.5t-17 48t-20 34.5t-17 22
l-7 7q-4 6 3 10l31 26q2 2 5 1.5t4 -2.5q3 -3 8 -9t18.5 -26.5t24 -43t19 -57t8.5 -70t-8.5 -69.5t-20 -58t-23 -43t-19.5 -28zM368 49q-2 -4 -5 -1l-35 33l-1 1q-2 5 1 6q40 40 40 102q0 37 -14.5 64.5t-25.5 36.5q-4 4 -1 6q0 1 1 1l38 31q2 3 4 -1q6 -6 14.5 -17
t22.5 -47t14 -74.5t-13 -73.5t-27 -51z" />
    <glyph glyph-name="uniF14D" unicode="&#xf14d;" 
d="M340 223q23 0 32 -18q13 -21 13 -69q0 -45 -13 -66q-11 -21 -32 -21t-32 21q-13 18 -13 66q0 38 11 65q12 22 34 22zM148 316v122h52v-122h-52zM312 316v122h52v-122h-52zM463 377q16 0 27.5 -11t11.5 -27v-354q0 -17 -11.5 -28t-27.5 -11h-414q-17 0 -28 11.5t-11 27.5
v354q0 16 11.5 27t27.5 11h78v-81h94v81h70v-81h94v81h78zM217 39q23 17 20 49q0 41 -41 52q14 7 23 19q10 16 10 32q0 29 -17 42q-19 17 -50 17q-26 0 -47 -21q-18 -18 -18 -54h33q3 25 10 34q6 12 26 12q16 0 26 -10q8 -11 8 -26q0 -11 -6 -20q-7 -7 -16 -10q-8 -2 -34 -2
v-27h8q30 0 42 -12q14 -8 14 -28q0 -16 -12 -29q-10 -10 -30 -10t-34.5 14.5t-14.5 38.5h-28q0 -35 18 -57q18 -20 57 -20q31 0 53 16zM397 51q20 29 20 85q0 54 -20 83q-22 31 -57 31t-57 -31q-20 -29 -20 -85q0 -54 20 -83q19 -30 57 -30q35 0 57 30z" />
    <glyph glyph-name="uniF14E" unicode="&#xf14e;" 
d="M279 186.5q0 39.5 28 67t67.5 27.5t67 -27.5t27.5 -67t-27.5 -67.5t-67 -28t-67.5 28t-28 67.5zM230 162q7 -45 39.5 -78.5t77.5 -42.5v-81q0 -7 -5 -12t-12 -5h-301q-7 0 -12 4.5t-5 12.5v185q0 7 5 12t12 5h201zM725 162q16 0 18 -17v-185q0 -7 -4.5 -12t-12.5 -5h-301
q-6 0 -11.5 4.5t-5.5 12.5v83q44 10 74 42.5t37 76.5h206zM725 441q15 0 18 -17v-185q0 -7 -4.5 -12t-12.5 -5h-209q-10 39 -39.5 68.5t-69.5 38.5v95q0 7 5 12t12 5h300zM345 329q-42 -8 -72.5 -37t-39.5 -70h-204q-7 0 -12 4.5t-5 12.5v185q0 7 5 12t12 5h299q7 0 12 -4.5
t5 -12.5v-95z" />
    <glyph glyph-name="uniF14F" unicode="&#xf14f;" 
d="M595 370q9 -6 8 -16.5t-13 -16.5l-322 -323l-49 -49q-8 -8 -16.5 -8t-16.5 8l-50 49l-107 108q-6 6 -6 16.5t6 16.5l54 54q6 6 16 6t17 -6l90 -91l306 301q6 6 16.5 6t16.5 -6z" />
    <glyph glyph-name="uniF150" unicode="&#xf150;" 
d="M402 59q0 -31 -52.5 -53t-127 -22t-128 22t-53.5 53v96q0 -32 52.5 -53.5t127.5 -21.5t127.5 21.5t52.5 53.5v-96h1zM402 188q0 -31 -52.5 -53t-127 -22t-128 22t-53.5 53v96q0 -31 52.5 -53t127.5 -22t127.5 22t52.5 53v-96h1zM43 325q0 31 52.5 53t127 22t127 -22
t52.5 -53t-52.5 -53t-127 -22t-127 22t-52.5 53z" />
    <glyph glyph-name="uniF151" unicode="&#xf151;" 
d="M303 421l37 -114q11 -27 37 -27h118q28 0 37 -26.5t-13 -44.5l-98 -71q-24 -18 -13 -44l37 -114q7 -28 -15.5 -43.5t-45.5 -0.5l-98 71q-21 15 -47 0l-91 -64q-22 -18 -45 -1t-15 45l37 114q10 26 -14 44l-94 67q-23 15 -14.5 43t37.5 28h118q27 0 37 27l37 114
q5 17 20.5 23t30.5 -1t20 -25z" />
    <glyph glyph-name="uniF152" unicode="&#xf152;" 
d="M89 396q3 5 10 12t29 19t46 12q22 0 84.5 -20t90.5 -20q20 0 41 11t31 22l11 11v-235q-4 -5 -11.5 -12.5t-29.5 -20t-44 -12.5q-30 0 -84.5 20t-92.5 20q-18 0 -38.5 -10t-31.5 -20l-11 -10v233zM33 -61h-5q-9 0 -16 7t-7 16v458q0 9 7 16t16 7h5q9 0 16 -7t7 -16v-456
q1 -11 -5.5 -18t-17.5 -7z" />
    <glyph glyph-name="uniF153" unicode="&#xf153;" 
d="M765 214q15 0 23.5 -9t6.5 -21v-125q0 -30 -30 -30t-52.5 -5t-33.5 -12.5t-18.5 -16t-9.5 -15.5t-4 -12t-4 -5h-452q-4 0 -10.5 10.5t-16 22.5t-35 22.5t-61.5 10.5q-12 0 -21 8.5t-9 21.5v125q0 12 9 21t21 9h697zM675 148v-19q0 -8 9 -8h19q8 0 8 8v19q0 9 -8 9h-19
q-9 0 -9 -9zM613 148v-19q0 -8 8 -8h19q8 0 8 8v19q0 9 -8 9h-19q-8 0 -8 -9zM553 148v-19q0 -8 8 -8h19q8 0 8 8v19q0 9 -8 9h-19q-8 0 -8 -9zM493 148h-3v-19q0 -8 8 -8h19q9 0 9 8v19q0 9 -9 9h-16q-8 0 -8 -9zM430 148v-19q0 -8 8 -8h20q8 0 8 8v19q0 9 -8 9h-20
q-8 0 -8 -9zM370 148v-19q0 -8 9 -8h19q8 0 8 8v19q0 9 -8 9h-19q-9 0 -9 -9zM310 148v-19q0 -8 9 -8h19q8 0 8 8v19q0 9 -8 9h-19q-9 0 -9 -9zM248 148v-19q0 -8 8 -8h19q8 0 8 8v19q0 9 -8 9h-19q-8 0 -8 -9zM188 148v-19q0 -8 8 -8h19q2 0 5 3t3 5v19q0 9 -8 9h-19
q-8 0 -8 -9zM128 148v-19q0 -8 8 -8h19q8 0 8 8v19q0 9 -8 9h-19q-8 0 -8 -9zM716 78v19q0 8 -8 8h-580q-8 0 -8 -8v-19q0 -9 8 -9h580q8 0 8 9zM520 391v-90h-49v122h11h193q39 0 39 -38v-84h-52v90h-47v-90h-51v90h-44zM256 298v74h49v-41h93v60h-142v32h11h142
q38 0 38 -38v-51q0 -36 -38 -36h-153zM182 423h52v-122h-52v44h-87v-41h-51v122h51v-49h90q-3 14 -3 46zM784 423v-122h-51v122h51z" />
    <glyph glyph-name="uniF154" unicode="&#xf154;" 
d="M577 -64h-497q-32 0 -55 22.5t-23 54.5v358q-1 31 21 54t54 23h497q32 0 54.5 -22.5t22.5 -54.5v-355q2 -34 -20 -57t-54 -23zM77 408q-16 0 -26.5 -11t-10.5 -26v-355q0 -17 11 -27.5t26 -10.5h497q16 0 26.5 11t10.5 27v355q0 16 -11 26.5t-26 10.5h-497zM94 321
q0 8 15 8h3q15 0 15 -8v-112h141v112q0 8 15 8h3q15 0 15 -8v-258q0 -8 -15 -8h-3q-15 0 -15 8v117h-139v-117q0 -8 -15 -8h-5q-15 0 -15 8v258zM360 319q0 12 13 12h79q55 0 88.5 -32.5t33.5 -104t-33.5 -104t-88.5 -32.5h-79q-13 0 -13 12v249zM447 85q40 0 63.5 26
t23.5 81q2 55 -22 81t-65 26h-54v-214h54z" />
    <glyph glyph-name="uniF155" unicode="&#xf155;" 
d="M577 448q33 0 56 -22.5t21 -54.5v-355q0 -32 -23 -55t-54 -23h-500q-32 0 -54.5 23t-22.5 55v355q0 32 22.5 54.5t54.5 22.5h500zM313 63h-2v258q0 15 -23 15h-2q-23 0 -23 -15v-104h-129v104q0 15 -22 15h-3q-22 0 -22 -15v-258q0 -15 22 -15h5q23 0 23 15v112h129v-112
q0 -15 22 -15h3q22 0 22 15zM452 48q62 0 94.5 37t32.5 105q0 69 -32.5 106.5t-94.5 37.5h-79q-18 0 -18 -18v-251q0 -17 18 -17h79zM450 294q39 0 60.5 -26.5t21.5 -75.5q0 -102 -82 -102h-47v204h47z" />
    <glyph glyph-name="uniF156" unicode="&#xf156;" 
d="M233 -2h-96q-14 0 -14 14v152h-47q-8 1 -7.5 6.5t7.5 12.5q2 1 24 24l49.5 51.5l56.5 58l50 49.5t24 20h4q3 0 24 -20l50 -49.5l56.5 -58l49.5 -51.5l24 -25q7 -7 7.5 -12.5t-7.5 -5.5h-47v-152q0 -14 -14 -14h-96v145h-98v-145z" />
    <glyph glyph-name="uniF157" unicode="&#xf157;" 
d="M354.5 438q63.5 0 108 -44.5t44.5 -108t-44.5 -108t-108.5 -44.5q-25 0 -57 11l-39 -37v-51q0 -7 -3.5 -11t-7.5 -5h-3h-49v-44q0 -9 -3 -13.5t-7 -5.5h-3h-54l-21 -21q-3 -4 -8 -6.5t-8 -3.5h-3h-55q-11 0 -17 7t-6 15v7v41q0 8 2 14t4 8l2 2l193 193q-9 25 -9 52
q0 64 44.5 108.5t108 44.5zM382 269q21 0 35 14t14 35t-14 35t-35 14t-35 -14t-14 -35t14 -35t35 -14z" />
    <glyph glyph-name="uniF158" unicode="&#xf158;" 
d="M508 -64h-252q-104 0 -180 76t-76 180t76 180t180 76h252q20 0 32 -12.5t12 -32.5t-12 -32.5t-32 -12.5h-252q-67 0 -116.5 -49.5t-49.5 -116.5t49.5 -116.5t116.5 -49.5h252q20 0 32 -12.5t12 -32.5t-12 -32.5t-32 -12.5zM1163 -64h-251q-20 0 -32.5 12.5t-12.5 32.5
t12.5 32.5t32.5 12.5h251q68 0 117 49.5t49 116.5t-49 116.5t-117 49.5h-251q-20 0 -32.5 12.5t-12.5 32.5t12.5 32.5t32.5 12.5h251q105 0 180.5 -76t75.5 -180t-75.5 -180t-180.5 -76zM970 147h-521q-20 0 -32.5 12.5t-12.5 32.5t12.5 32.5t32.5 12.5h521q20 0 32.5 -12.5
t12.5 -32.5t-12.5 -32.5t-32.5 -12.5z" />
    <glyph glyph-name="uniF159" unicode="&#xf159;" 
d="M16 385v52h460v-52h-460zM16 245v52h318v-52h-318zM16 98v52h167v-52h-167zM230 37l68 -71l-90 -19zM531 338l69 -68l-269 -268l-68 68zM652 391q35 -33 8 -61l-25 -24l-68 68l24 25q28 27 61 -8z" />
    <glyph glyph-name="uniF15A" unicode="&#xf15a;" 
d="M350 271l64 -30v-239l-52 -14l-212 -40l-91 -12l-59 34v239l69 17v57q0 76 45 120.5t108 44.5q65 0 96.5 -31t31.5 -112v-34zM140 241l141 20v47v11.5v12.5t-0.5 10.5t-1.5 10.5t-3 8.5t-5 8t-7 5.5t-9.5 5t-12.5 2.5t-16 1.5q-40 0 -63 -33.5t-23 -82.5v-27z" />
    <glyph glyph-name="uniF15B" unicode="&#xf15b;" 
d="M411 436h101v-488h-101h-25h-256h-25h-105v488h106h24h256h25zM100 -29v34h-60v-34h60zM100 50v35h-60v-35h60zM100 132v35h-60v-35h60zM100 213v35h-60v-35h60zM100 299v35h-60v-35h60zM100 380v35h-60v-35h60zM130 413v-51q0 -2 2 -4.5t5 -2.5h242q2 0 4.5 2.5t2.5 4.5
v51h-256zM130 312v-207q0 -3 2 -5t5 -2h243q3 0 5 2t2 5v207q0 3 -2 5t-5 2h-243q-3 0 -5 -2t-2 -5zM130 -29h257v90q0 3 -2 5t-5 2h-243q-3 0 -5 -2t-2 -5v-90zM480 -29v34h-60v-34h60zM480 50v35h-60v-35h60zM480 132v35h-60v-35h60zM480 213v35h-60v-35h60zM480 299v35
h-60v-35h60zM480 380v35h-60v-35h60z" />
    <glyph glyph-name="uniF15C" unicode="&#xf15c;" 
d="M179 39q14 -25 29 -35q12 -8 25 -19.5t11 -16.5q-5 -7 -25 -14.5t-45 -7.5q-7 0 -14.5 3.5t-13 10t-10.5 14t-8.5 15l-6.5 14t-4 10.5l-1 4zM170 64q-48 -15 -56 -17q-2 -2 -14 -0.5t-26 4.5t-30 16.5t-27 34.5q-15 31 -8 58t19.5 43.5t22.5 20.5q2 2 29 10.5t52 18.5
t38 19q18 14 38 46.5t28 54.5q1 3 4.5 12.5t5.5 14.5t6.5 13.5t9.5 13t13 8t17 3.5q32 0 73 -40.5t76 -119.5q23 -54 29.5 -109.5t-5 -95.5t-35.5 -53q-14 -7 -31 -2.5t-34 16.5t-40 23.5t-48.5 17.5t-59.5 -1q-2 2 -6.5 5.5t-15.5 16.5t-20 29.5t-18.5 45.5t-13.5 61
q-4 -24 -4.5 -45.5t0.5 -35.5t6 -29.5t7.5 -22t9 -19.5t8.5 -16zM406 251q-13 39 -36.5 73t-43 50t-28.5 14q-21 -7 -22 -56t19 -112t56 -109.5t58 -39.5q21 8 19.5 62t-22.5 118zM311 263q5 1 13.5 3t20.5 -7.5t20 -30.5q5 -20 1 -34t-12 -21l-8 -7q-11 17 -19.5 41
t-12.5 40z" />
    <glyph glyph-name="uniF15D" unicode="&#xf15d;" 
d="M498 150q0 -8 -6 -14.5t-14 -6.5h-444q-8 0 -14 6.5t-6 14.5v61q0 7 6 13.5t14 6.5h444q8 0 14 -6.5t6 -13.5v-61z" />
    <glyph glyph-name="uniF15E" unicode="&#xf15e;" 
d="M0 80v207l179 -144v-207zM192 143l180 144v-207l-180 -144v207zM333 126q4 9 0 17q-6 6 -11 -6l-30 -51v81q0 4 -2 6.5t-5 0.5q-8 -2 -8 -12v-95l-39 19q-11 2 -11 -6q0 -7 8 -11l50 -24zM185 428l-157 -128l157 -127l159 127zM185 448l185 -148l-183 -148l-183 148z
M275 365l-175 -131z" />
    <glyph glyph-name="uniF15F" unicode="&#xf15f;" 
d="M27 -64q-11 0 -19 8t-8 19v458q0 11 8 19t19 8h79q11 0 19 -8t8 -19v-458q0 -11 -8 -19t-19 -8h-79zM316 -64q-10 0 -18 8t-8 19v458q0 11 8 19t18 8h80q11 0 19 -8t8 -19v-458q0 -11 -8 -19t-19 -8h-80z" />
    <glyph glyph-name="uniF160" unicode="&#xf160;" 
d="M532 206q12 -6 12 -14t-12 -14l-489 -222q-11 -6 -20.5 0t-9.5 20v432q0 13 8.5 19t21.5 1z" />
    <glyph glyph-name="uniF161" unicode="&#xf161;" 
d="M61 179q-12 5 -12 13t12 13l475 215q12 5 20 -1t8 -18v-92l-172 -76q-16 -7 -16 -38.5t16 -39.5l172 -75v-97q0 -14 -8 -19t-20 0zM448 179q-12 5 -12 13t12 13l475 215q12 5 20 0t8 -19v-420q0 -13 -8 -18.5t-20 -0.5z" />
    <glyph glyph-name="uniF162" unicode="&#xf162;" 
d="M574 -64h-497q-32 0 -54.5 22.5t-22.5 54.5v355q-2 34 20.5 57t56.5 23h497q32 0 54.5 -22.5t22.5 -54.5v-355q0 -34 -22.5 -57t-54.5 -23zM77 408q-16 0 -26.5 -11t-10.5 -26v-355q0 -17 11 -27.5t26 -10.5h497q16 0 26.5 11t10.5 27v355q0 16 -11 26.5t-26 10.5h-497z
M119 103q1 0 10 -5t24.5 -10t32.5 -5q23 0 38 12.5t15 34.5q0 18 -13.5 30t-32 18.5t-37 14.5t-31.5 24.5t-13 41.5q0 33 23.5 52.5t63.5 19.5q19 0 40.5 -7t21.5 -18q0 -4 -4.5 -12t-7.5 -8q-1 0 -17 7.5t-36 7.5q-23 0 -36 -11.5t-13 -32.5q0 -16 13 -26t31.5 -16.5
t37 -15t31.5 -26.5t13 -46q0 -35 -23.5 -56t-63.5 -21q-31 0 -56.5 10t-25.5 20q0 6 6 14.5t9 8.5zM326 316q0 13 12 13h80q55 0 88 -32.5t33 -104.5t-33 -104.5t-88 -32.5h-80q-12 0 -12 13v248zM413 85q39 0 63 26t24 81t-24.5 81t-62.5 26h-55v-214h55z" />
    <glyph glyph-name="uniF163" unicode="&#xf163;" 
d="M577 448q33 0 56 -22.5t21 -54.5v-355q0 -32 -23 -55t-54 -23h-500q-32 0 -54.5 23t-22.5 55v355q0 32 22.5 54.5t54.5 22.5h500zM189 45q43 0 68.5 23.5t23.5 63.5q0 22 -7 37.5t-20.5 25.5t-24 15.5t-28.5 11.5q-25 8 -36 15.5t-11 21.5q0 37 45 37q9 0 16.5 -1.5
t15 -4.5t10.5 -4q5 -5 10 -5q7 0 13.5 10.5t6.5 17.5q0 15 -24 22.5t-46 7.5q-42 0 -68 -22t-26 -58q0 -35 20 -52.5t54 -29.5q18 -6 27 -10.5t17.5 -14t8.5 -22.5q0 -19 -12.5 -30.5t-32.5 -11.5q-27 0 -57 15q-2 0 -4.5 1.5t-3.5 2t-2 0.5q-7 0 -13.5 -10t-6.5 -17
q0 -13 27 -24t60 -11zM418 48q61 0 94.5 37.5t31.5 104.5q0 69 -32.5 106.5t-93.5 37.5h-80q-17 0 -17 -18v-251q0 -17 17 -17h80zM415 85v-2h-55v216h55q40 0 65 -26t25 -81t-25 -81t-65 -26z" />
    <glyph glyph-name="uniF164" unicode="&#xf164;" 
d="M145 98v25h220v-25h-220zM145 43v25h170v-25h-170zM325 280q-6 0 -10 4.5t-4 10.5v84q0 6 4 10t10 4h49q6 0 10 -4t4 -10v-84q0 -6 -4 -10.5t-10 -4.5h-49zM413 440l91 -95v-365q0 -14 -11 -25t-25 -11h-424q-14 0 -25 11t-11 25v424q0 14 11 25t25 11h369zM413 -18v172
q0 10 -6.5 16.5t-16.5 6.5h-275q-9 0 -16 -6.5t-7 -16.5v-172h321zM413 284v122h-321v-122q0 -9 7 -16t16 -7h275q10 0 16.5 7t6.5 16z" />
    <glyph glyph-name="uniF165" unicode="&#xf165;" 
d="M11 368.5q0 29.5 69.5 50.5t168.5 21t169 -21t70 -50.5t-70 -50.5t-169 -21t-168.5 21t-69.5 50.5zM488 310v-294q0 -30 -69.5 -51t-169 -21t-169 21t-69.5 51v294q0 -30 69.5 -51t169 -21t169 21t69.5 51z" />
    <glyph glyph-name="uniF166" unicode="&#xf166;" 
d="M472 442q15 0 24.5 -9.5t9.5 -24.5v-432q0 -15 -9.5 -24.5t-24.5 -9.5h-432q-15 0 -24.5 9.5t-9.5 24.5v432q0 15 9.5 24.5t24.5 9.5h432zM472 -37q5 0 9 4t4 9v345h-458v-345q0 -5 4 -9t9 -4h432zM62 207v66h67v-66h-67zM171 207v66h66v-66h-66zM275 207v66h66v-66h-66z
M383 207v66h67v-66h-67zM62 105v66h67v-66h-67zM171 105v66h66v-66h-66zM275 105v66h66v-66h-66zM383 105v66h67v-66h-67zM62 3v66h67v-66h-67zM171 3v66h66v-66h-66zM275 3v66h66v-66h-66zM383 3v66h67v-66h-67z" />
    <glyph glyph-name="uniF167" unicode="&#xf167;" 
d="M101 156q-10 0 -17 8t-7 19.5t7 19.5t17 8q12 0 18.5 -7.5t6.5 -20.5q0 -12 -7.5 -19.5t-17.5 -7.5zM101 272q-10 0 -17 8t-7 19.5t7 19.5t17 8q12 0 18.5 -7.5t6.5 -19.5q0 -11 -7.5 -19.5t-17.5 -8.5zM433 448q24 0 40.5 -17.5t18.5 -41.5v-295q0 -24 -17 -41.5
t-40 -17.5h-131l25 -52h44q12 0 20 -6.5t8 -15.5v-3q0 -9 -8 -15.5t-20 -6.5h-254q-11 0 -19 6.5t-8 15.5v3q0 9 8 15.5t19 6.5h39l25 52h-126q-24 0 -40.5 17.5t-16.5 41.5v295q0 24 17 41.5t40 17.5h376zM448 92v297q0 14 -13 14h-378q-5 0 -8.5 -4.5t-3.5 -9.5v-297
q0 -6 3.5 -10.5t8.5 -4.5h378q6 0 9.5 4.5t3.5 10.5zM163 186q1 0 13.5 -6.5t23.5 -6.5q12 0 18.5 7.5t6.5 20.5q0 27 -30 27h-7q-7 0 -7 15v5q0 14 7 14h5q13 0 20 6.5t7 16t-5.5 16t-14.5 6.5q-11 0 -20 -3.5l-9 -3.5q-6 0 -10.5 6.5t-4.5 12.5q0 20 49 20q24 0 38 -13
t14 -34q0 -31 -24 -39q29 -12 29 -50q0 -27 -16.5 -43t-42.5 -16q-20 0 -38.5 5t-18.5 17q10 20 17 20zM287 240.5q0 46.5 16 72.5t45.5 26t46 -26t16.5 -72.5t-16.5 -73t-46 -26.5t-45.5 26.5t-16 73zM371 240q0 67 -22.5 67t-22.5 -67t22.5 -67t22.5 67z" />
    <glyph glyph-name="uniF168" unicode="&#xf168;" 
d="M371 222q0 60 -42.5 102.5t-102.5 42.5t-102.5 -42.5t-42.5 -102.5q0 -53 34.5 -93t85.5 -48v54l143 -101l-143 -98v60q-85 8 -143 73t-58 153q0 93 66.5 159.5t160 66.5t159.5 -66.5t66 -159.5h-81z" />
    <glyph glyph-name="uniF169" unicode="&#xf169;" 
d="M341 438q52 0 90 -37t36 -98v-51q-8 -8 -28 -8q-24 0 -31 10v37q0 41 -18.5 68.5t-52.5 27.5q-14 0 -23 -4t-13.5 -8t-6.5 -15.5t-2 -16v-19.5v-100h8l53 -27v-198l-43 -12l-175 -33l-76 -10l-49 29v198l61 18l164 26v104q0 67 26 93t80 26z" />
    <glyph glyph-name="uniF16A" unicode="&#xf16a;" 
d="M123 106l-49 86l49 87h99l50 -87l-50 -86h-99zM295 9l-50 86l50 86h100l50 -86l-50 -86h-100zM295 204l-50 85l50 86h100l50 -86l-50 -85h-100z" />
    <glyph glyph-name="uniF16B" unicode="&#xf16b;" 
d="M405 448q85 0 163 -26.5t129 -66.5t81.5 -84t31.5 -81q0 -37 -29.5 -81t-80.5 -83.5t-129.5 -66.5t-165.5 -27q-88 0 -166.5 27t-129 66.5t-80 83.5t-29.5 81t29.5 81t80 84t129 66.5t166.5 26.5zM405 10q75 0 129.5 53.5t54.5 130.5t-53 130.5t-130.5 53.5t-131 -53.5
t-53.5 -130.5t54.5 -130.5t129.5 -53.5zM453 179q19 0 34.5 11.5t24.5 29.5q4 -11 4 -30q0 -47 -32 -78.5t-79 -31.5t-78.5 31.5t-31.5 78.5t31.5 79t78.5 32q19 0 26 -4q-17 -6 -29 -21t-12 -34q0 -27 19 -45t44 -18z" />
    <glyph glyph-name="uniF16C" unicode="&#xf16c;" 
d="M532 143q32 -30 34 -77q0 -46 -31 -79q-32 -33 -77 -33t-78 31q-34 31 -34 76.5t31 78.5q32 34 77 34t78 -31zM515 6q25 25 23 60q-3 36 -26 58q-25 23 -59 23q-37 -3 -59 -26q-22 -25 -22 -59q2 -37 25 -58q25 -23 60 -23q36 2 58 25zM397 432q13 0 22.5 -10t8.5 -23
v-120q0 -13 -9 -22.5t-22 -9.5h-167q-6 0 -8 1l-38 -38l16 -16l-65 -12l11 66l16 -16l38 38q0 2 -0.5 5t-0.5 5v119q0 14 9 23.5t22 9.5h167zM400 280h-1v119q0 2 -2 2h-167q-2 0 -2 -2v-119q0 -1 2 -1h169q1 0 1 1zM334 67l-56 -38v23h-54l-44 -78h-107l-54 93l54 92h107
l44 -77h54v23z" />
    <glyph glyph-name="uniF16D" unicode="&#xf16d;" 
d="M293 92l-15 15q-41 -25 -83 -25q-73 0 -125 49t-55 122q-4 72 46 124.5t124 55.5q74 0 125.5 -48.5t55.5 -121.5q0 -66 -39 -112l14 -15zM195 126q52 4 89.5 43.5t37.5 93.5q-4 55 -43.5 92.5t-93.5 33.5q-54 -3 -90 -42t-36 -94q3 -55 42 -91t94 -36zM478 9
q22 -22 5 -49q-30 -19 -49 0l-117 113l49 43zM176 272v49q0 10 4 10q3 0 5.5 2.5t4.5 2.5q10 0 10 -5q0 -2 2.5 -4.5t2.5 -5.5v-49h49q9 0 9 -4q5 -5 5 -10q0 -10 -5 -10q-2 -2 -4.5 -3.5t-3.5 -1.5h-1h-49v-49q0 -9 -5 -9q-5 -5 -10 -5q-10 0 -10 5q0 2 -2 4.5t-2 4.5v49
h-49q-10 0 -10 5q-5 5 -5 10q0 10 5 10q2 0 4.5 2t5.5 2h49z" />
    <glyph glyph-name="uniF16E" unicode="&#xf16e;" 
d="M293 92l-15 15q-41 -25 -83 -25q-73 -3 -127.5 47.5t-57.5 123.5q0 74 49 128t121 57q76 4 129 -46t57 -124q0 -71 -39 -117l19 -15zM195 126q55 4 91 43t36 94q-4 55 -43.5 92.5t-93.5 33.5q-55 0 -92.5 -40.5t-33.5 -95.5q0 -54 40 -90.5t96 -36.5zM483 4
q10 -7 11 -22.5t-6 -25.5q-30 -20 -49 0l-127 112l54 48zM268 268v-15q0 -10 -5 -10q-2 -2 -4.5 -3t-3.5 -2h-1h-127q-10 0 -10 5q-5 0 -5 10v15q0 9 5 9q5 5 10 5h127q9 0 9 -5q0 -2 2.5 -4.5t2.5 -4.5z" />
    <glyph glyph-name="uniF16F" unicode="&#xf16f;" 
d="M535 227q22 -17 22 -35t-23 -34l-145 -105l-145 -105q-24 -18 -42 -7q-21 10 -21 40v154h-158q-9 0 -16 7t-7 16v68q0 9 7 16t16 7h158v153q0 46 36 46q13 0 27 -10z" />
    <glyph glyph-name="uniF170" unicode="&#xf170;" 
d="M663 226q22 -16 22 -34t-22 -34l-164.5 -120t-121.5 -89q-24 -17 -43 -7q-21 12 -21 41q1 77 1 152h-156q-9 0 -16 6.5t-7 16.5v67q0 9 7 15.5t16 6.5h156v151q0 45 35 46q13 0 28 -10z" />
    <glyph glyph-name="uniF171" unicode="&#xf171;" 
d="M649 337q15 -66 15 -145t-15 -145q-17 -71 -88 -88q-104 -24 -229.5 -24t-228.5 24q-74 17 -88 89q-15 65 -15 144.5t15 144.5q14 71 88 88q103 24 228.5 24t229.5 -24q72 -17 88 -88zM186 33v31h-96v-31h96zM186 96v32h-96v-32h96zM313 33v31h-95v-31h95zM313 96v32h-95
v-32h95zM313 160v31h-95v-31h95zM313 223v32h-95v-32h95zM313 287v31h-95v-31h95zM313 350v32h-95v-32h95zM445 33v31h-96v-31h96zM445 96v32h-96v-32h96zM445 160v31h-96v-31h96zM573 33v31h-95v-31h95zM573 96v32h-95v-32h95zM573 160v31h-95v-31h95zM573 223v32h-95v-32
h95z" />
    <glyph glyph-name="uniF172" unicode="&#xf172;" 
d="M51 -46v3h-25v23v429v24h25h729h23v-26v-430v-23h-23h-729zM780 -23h-3v430h-427v-157h152v77l185 -136l-185 -137v75h-152v-152h430z" />
    <glyph glyph-name="uniF173" unicode="&#xf173;" 
d="M231 331q28 0 51.5 -8.5t23.5 -16.5q0 -5 -4.5 -13.5t-8.5 -8.5q-1 0 -8.5 4.5t-21 8.5t-29.5 4q-47 0 -69.5 -26t-22.5 -83q0 -109 89 -109q18 0 33.5 5t24 10t9.5 5q4 0 9.5 -9.5t5.5 -13.5q0 -5 -10 -11.5t-30 -11t-42 -4.5q-65 0 -96 34t-31 105q0 139 127 139z
M475 331q28 0 51 -8.5t23 -16.5q0 -5 -4.5 -13.5t-7.5 -8.5q-1 0 -8.5 4.5t-21 8.5t-30.5 4q-47 0 -69.5 -26t-22.5 -83q0 -109 90 -109q17 0 32.5 5t24.5 10t10 5q3 0 9 -9.5t6 -13.5q0 -5 -10.5 -11.5t-30 -11t-41.5 -4.5q-65 0 -96 34t-31 105q0 139 127 139zM574 -64
h-497q-32 0 -54.5 22.5t-22.5 54.5v355q-2 34 20.5 57t56.5 23h497q32 0 54.5 -22.5t22.5 -54.5v-355q0 -34 -22.5 -57t-54.5 -23zM77 408q-16 0 -26.5 -11t-10.5 -26v-355q0 -17 11 -27.5t26 -10.5h497q16 0 26.5 11t10.5 27v355q0 16 -11 26.5t-26 10.5h-497z" />
    <glyph glyph-name="uniF174" unicode="&#xf174;" 
d="M577 448q33 0 56 -22.5t21 -54.5v-355q0 -32 -23 -55t-54 -23h-500q-32 0 -54.5 23t-22.5 55v355q0 32 22.5 54.5t54.5 22.5h500zM234 45q33 0 60 11t27 24q0 5 -7 16t-13 11l-10 -4q-30 -15 -57 -15q-45 0 -65 25t-20 79.5t20.5 79t66.5 24.5q22 0 52 -15q3 0 6 -1t4 -1
q7 0 13.5 11.5t6.5 18.5q0 12 -26 21t-56 9q-134 0 -134 -147q0 -75 32.5 -111t99.5 -36zM477 45q32 0 59.5 11t27.5 24q0 5 -6.5 16t-13.5 11l-10 -4q-29 -15 -57 -15q-44 0 -64 25t-20 79t21 79t66 25q22 0 52 -15q3 0 6 -1t4 -1q7 0 13.5 11.5t6.5 18.5q0 12 -26 21
t-56 9q-135 0 -135 -147q0 -75 32.5 -111t99.5 -36z" />
    <glyph glyph-name="uniF175" unicode="&#xf175;" 
d="M698 401q0 -18 -18 -37q-168 -251 -280 -400q-21 -28 -46.5 -28t-46.5 28l-126.5 172.5t-161.5 227.5q-33 33 -10 56q14 28 56 28h577q28 0 42 -12.5t14 -34.5z" />
    <glyph glyph-name="uniF176" unicode="&#xf176;" 
d="M6 445h382v-503h-382v503zM145 0q69 0 119.5 56.5t50.5 134.5q0 79 -50.5 136t-119.5 57h-64v-384h64zM813 -61v506h-385v-503h385v-3zM674 384h64v-384h-64q-70 0 -120.5 57t-50.5 136t50 135t121 56z" />
    <glyph glyph-name="uniF177" unicode="&#xf177;" 
d="M263 192q0 -54 -33 -91.5t-81 -35.5h-42v256h42q48 0 81 -37.5t33 -91.5zM577 448q32 0 54 -23t20 -57v-355q0 -32 -22.5 -54.5t-54.5 -22.5h-497q-32 0 -54.5 22.5t-22.5 54.5v355q0 34 23 57t57 23h497zM313 23h3v338h-256v-338h253zM597 23v338h-256v-338h256z
M505 321h42v-256h-42q-47 0 -81 38t-34 91t34 90t81 37z" />
    <glyph glyph-name="uniF178" unicode="&#xf178;" 
d="M939 205q12 -5 12 -13.5t-12 -17.5l-474 -214q-12 -6 -20.5 0t-8.5 18v97l173 76q16 7 16 38.5t-16 39.5l-173 75v97q0 14 8 19t21 0zM552 205q12 -5 12 -13t-12 -13l-474 -215q-13 -5 -20.5 0t-7.5 19v418q0 12 8 18t20 1z" />
    <glyph glyph-name="uniF179" unicode="&#xf179;" 
d="M340 288l-36 -35l-116 114v-332q0 -38 -27 -64.5t-65 -26.5t-64.5 26.5t-26.5 64.5t26.5 64.5t64.5 26.5q16 0 41 -10v324h51z" />
    <glyph glyph-name="uniF17A" unicode="&#xf17a;" 
d="M333 285v-128q0 -9 7 -16l162 -163q13 -13 8 -26q-3 -10 -13 -14t-19 1q-6 4 -9 8l-458 458q-12 11 -11 24q2 13 13.5 18t21.5 -3q3 -2 7 -7l58.5 -57.5l58.5 -57.5q4 -5 6 -5t7 5l110 109q11 11 18 14q12 5 21.5 0t11.5 -17q1 -5 1 -17q-1 -43 -1 -126zM30 191v67
q0 23 23 26h18q7 0 9 -4q3 -1 5 -3l120.5 -121l120.5 -121q7 -7 7 -18v-27.5t-1 -28.5v-2q-2 -17 -14 -22q-12 -6 -25 5l-23 23l-57 56.5l-57 56.5q-7 4 -9 7q-9 14 -30 12h-54q-7 0 -10 1q-20 3 -20 23q-3 24 -3 70z" />
    <glyph glyph-name="uniF17B" unicode="&#xf17b;" 
d="M780 433h23v-26v-427v-23h-23h-729h-25v23v429v24h25h729zM51 407v-427h425v157h-152v-78l-185 137l188 136v-77h152v152h-428z" />
    <glyph glyph-name="uniF17C" unicode="&#xf17c;" 
d="M24 177q-12 6 -12 13.5t12 13.5l507 230q12 7 21 1.5t9 -20.5v-446q0 -15 -9 -20.5t-21 1.5z" />
    <glyph glyph-name="uniF17D" unicode="&#xf17d;" 
d="M190 130h-122q-7 0 -11.5 4.5t-4.5 10.5v70q0 6 4.5 10.5t11.5 4.5h122q6 0 10.5 -4.5t4.5 -10.5v-72q-5 -13 -15 -13zM218 300q5 0 9 -4t4 -9t-4 -9t-9 -4h-153q-13 0 -13 13q0 5 4 9t9 4h153zM495 41q4 -9 -2.5 -15.5t-15.5 2.5l-19 30l-11 -48v-4q0 -28 -20 -48
t-48 -20t-47.5 20t-19.5 48v8q-32 11 -59 0v-8q0 -28 -20 -48t-48 -20q-40 0 -56 31h-107q-10 0 -16 6t-6 15v436q0 10 6 16t16 6h320q10 0 16 -6t6 -16v-357q4 2 15 2q30 0 52 -26l9 41q0 4 3 6.5t6 2.5q9 0 11 -4zM340 426h-318v-43h318v34v9zM185 -42q19 0 32.5 13.5
t13.5 32.5t-13 32t-33 13q-19 0 -32.5 -13.5t-13.5 -31.5q0 -20 14 -33t32 -13zM318 34q11 18 22 26v281h-318v-353h98q-2 5 -2 13q0 28 19.5 48t47.5 20q43 0 61 -37q33 13 72 2zM377 -42q19 0 32.5 13.5t13.5 32.5t-14 32t-32 13q-19 0 -32.5 -13.5t-13.5 -31.5
q0 -20 14 -33t32 -13z" />
    <glyph glyph-name="uniF17E" unicode="&#xf17e;" 
d="M545 202q13 -6 13 -14t-13 -14l-515 -233q-13 -6 -21.5 -0.5t-8.5 20.5v454q0 13 9.5 19.5t20.5 0.5zM618 448h64q8 0 14 -5.5t6 -14.5v-472q0 -8 -5.5 -14t-14.5 -6h-64q-8 0 -14 5.5t-6 14.5v469q0 9 6.5 16t13.5 7z" />
    <glyph glyph-name="uniF17F" unicode="&#xf17f;" 
d="M178 185q-13 5 -13 12.5t13 12.5l468 213q12 5 19.5 0t7.5 -19v-413q0 -12 -8.5 -17.5t-18.5 -0.5zM108 -41h-57q-8 0 -13.5 5t-5.5 14v426q0 9 6 15t13 6h57q9 0 15 -6t4 -15v-426q0 -8 -5 -13.5t-14 -5.5z" />
    <glyph glyph-name="uniF180" unicode="&#xf180;" 
d="M0 372v76h76v-76h-76zM145 372v76h77v-76h-77zM290 372v76h77v-76h-77zM436 372v76h76v-76h-76zM145 226v77h77v-77h-77zM290 226v77h77v-77h-77zM436 226v77h76v-77h-76zM290 81v77h77v-77h-77zM436 81v77h76v-77h-76zM436 -64v76h76v-76h-76z" />
    <glyph glyph-name="uniF181" unicode="&#xf181;" 
d="M273 366q6 1 19 0t18 -1t5 -4q-1 -13 3 -40q1 -6 -2 -13q-7 -14 -2.5 -29.5t17.5 -23.5q15 -9 30.5 -6t25.5 16q10 12 9 28t-13 27q-6 6 -6 13q-2 14 -2 22q0 6 5 5q4 0 13 -1.5t13 -2.5q12 -1 15 -14q3 -14 5 -44q6 -51 6 -101q0 -3 -0.5 -9t-0.5 -9q-2 -11 -8 -16
l-113.5 -115.5l-95.5 -98.5q-15 -15 -33 -12q-10 1 -21 10l-74.5 72.5l-74.5 72.5q-11 12 -10.5 26t11.5 26l87.5 88.5l87.5 87.5l40 40q4 5 12 6h34zM330 351q0 55 43.5 83t89.5 4q45 -24 48 -78q4 -73 -33 -144q-4 -6 -7 -8q-9 -6 -16 1q-9 5 -5 15q0 1 1 3.5t2 3.5
q22 44 28 95q4 35 -4 55q-8 19 -24.5 29t-36.5 8q-21 -2 -35.5 -16t-17.5 -35q-2 -13 2 -36q1 -5 3 -16t3 -16q1 -3 1 -8q-2 -12 -11 -14q-12 -2 -17 7q-2 3 -2 6q-12 35 -12 61z" />
    <glyph glyph-name="uniF182" unicode="&#xf182;" 
d="M11 368.5q0 27.5 63 47t152 19.5t151.5 -19.5t62.5 -47t-62.5 -47t-151.5 -19.5t-152 19.5t-63 47zM226 272q89 0 151.5 19.5t62.5 46.5v-323q0 -27 -62.5 -46.5t-151.5 -19.5t-152 19.5t-63 46.5v323q0 -27 63 -46.5t152 -19.5zM345 128v65q0 9 -2 11t-9 0t-21 -14
l-16 -16.5t-19 -17.5q-7 -6 -7 -5q-2 0 -2 5v11v7q0 5 -1 6.5t-7 1.5q-77 -6 -140 8q-3 1 -5.5 -1t-2.5 -7v-103q0 -9 8 -11q36 -10 70.5 -12.5t50.5 -0.5l15 2q8 0 10 3t2 9v5.5t0.5 8.5t1.5 4q1 1 4 -2l20 -17.5l21 -18.5q6 -4 12 -4h3.5h3.5q7 2 8.5 4.5t1.5 10.5v68z
" />
    <glyph glyph-name="uniF183" unicode="&#xf183;" 
d="M119 287v1q-3 7 -3 14v50v51q0 7 3 14q1 1 1.5 2l0.5 1l0.5 1t1.5 1q3 4 8 7q3 2 8 4h3l0.5 0.5l0.5 0.5h4q7 0 13 -3q1 -1 3 -2l2 -1q4 -3 6 -5q2 -3 2 -4l0.5 -0.5t0.5 -1.5q4 -7 4 -14v-51v-51q0 -8 -4 -14q0 -1 -1 -2q-1 -2 -2 -3q0 -1 -1 -2q-1 0 -1 -1q-2 -1 -2 -2
q-1 0 -2 -1l-2 -1q-1 0 -1.5 -0.5l-1.5 -1.5q-7 -3 -13 -3q-3 0 -4 1h-1h-3q-5 2 -8 4q-7 4 -12 12zM314 289v1q-2 6 -2 12v50v51q0 7 3 14q1 1 1 2q1 2 3 4q2 3 5 5q1 0 3 1q0 1 1 1t1 1q7 3 14 3h3l1 -1h4l8 -4q5 -3 8 -7l2 -2q1 -2 1 -3q4 -7 4 -14v-51v-50q0 -8 -3 -14
l-0.5 -0.5l-0.5 -0.5q-4 -7 -11 -12q-4 -2 -8 -3q-2 -1 -4 -1h-1h-3q-8 0 -14 3q-1 0 -2.5 1t-2.5 2q-1 0 -1 1q-1 0 -2 2q-1 0 -1 1q-1 0 -1.5 0.5l-0.5 0.5q0 1 -2 3q0 1 -0.5 1t-0.5 1t-1 2zM435 -8q17 0 29 12t12 29v-42q0 -17 -12 -29t-29 -12h-381q-16 0 -28 12
t-12 29v42q0 -17 12 -29t28 -12h381zM435 352q17 0 29 -12t12 -29v-55v-185q0 -17 -12 -29t-29 -12h-381q-16 0 -28 12t-12 29v185v55q0 17 12 29t28 12h39v-51q0 -21 16 -37t37.5 -16t37.5 16t16 37v51h89v-51q0 -21 15.5 -37t37.5 -16t37.5 16t15.5 37v51h40z" />
    <glyph glyph-name="uniF184" unicode="&#xf184;" 
d="M718 427q26 -1 30 -5t4 -30v-202v-203q0 -23 -4 -27t-28 -4h-20q-19 -1 -36 13l-130 104l-3.5 3.5t-4 3t-5.5 0.5q-2 -1 -3 -7.5t-1 -13v-14v-8.5q-1 -26 -5.5 -30.5t-30.5 -3.5h-426q-16 0 -20 3.5t-4 19.5v334q0 16 4 20t20 4h437q17 0 20.5 -4t4.5 -21q0 -1 -1 -16.5
t0 -26.5t6 -13q3 -2 7 0.5t9.5 8t7.5 6.5q88 70 108 87q28 24 64 22zM752 191v-203q0 -24 -4 -27.5t-28 -3.5h-19q-20 -2 -36 12l-130 104q-1 0 -4.5 3.5t-4 3t-4.5 0.5q-2 -1 -3.5 -7.5t-1.5 -13v-14v-8.5q0 -26 -4.5 -30.5t-31.5 -3.5h-426q-16 0 -19.5 4t-3.5 19v334
q0 16 3.5 20t19.5 4h438q16 0 20 -3.5t5 -20.5q0 -2 -1 -17.5t0 -26.5t5 -13t8 0.5t9 8t7 7.5q79 61 109 87q27 24 63 22q26 -2 30 -6t4 -30v-201z" />
    <glyph glyph-name="uniF186" unicode="&#xf186;" 
d="M316 255q39 0 66.5 -28t27.5 -67t-27.5 -66.5t-66.5 -27.5t-67 27.5t-28 67t28 67t67 27.5zM627 317q4 -10 5 -20v-306q-1 -2 -1 -4q1 -16 -15.5 -31.5t-34.5 -18.5q-10 -1 -19 -1q-3 0 -5 1h-488q-2 -1 -4 -1q-22 0 -40 12q-10 6 -17.5 18.5t-8.5 23.5v2v2v304
q1 12 6 23q8 13 24.5 22.5t31.5 9.5h71h4q9 0 16.5 6t9.5 15l17 51q2 9 11 16t19 7h1h34h172h3q12 0 22 -7q7 -6 10 -15q6 -17 17 -51q2 -9 9.5 -15.5t17.5 -6.5h4h68h1q17 0 34.5 -10.5t24.5 -25.5zM314 2h2q65 0 111.5 46.5t46.5 111.5q0 66 -46.5 112t-112 46t-111.5 -46
t-46 -112q0 -64 45.5 -110.5t110.5 -47.5zM546 243q9 0 15.5 6t7.5 16q-1 9 -7.5 15.5t-15.5 6.5t-15.5 -6.5t-6.5 -15.5t6.5 -15.5t15.5 -6.5z" />
    <glyph glyph-name="uniF187" unicode="&#xf187;" 
d="M699 448h-663q-14 0 -25 -11t-11 -25.5t11 -25.5t25 -11h297v-400q0 -15 11 -25.5t25.5 -10.5t25.5 10.5t11 25.5v400h293q15 0 26 11t11 25.5t-11 25.5t-26 11v0z" />
    <glyph glyph-name="uniF188" unicode="&#xf188;" 
d="M159 -64q-8 0 -14 3q-22 9 -22 33v403h-87q-14 0 -25 11t-11 25.5t11 25.5t25 11h123q15 0 26 -11t11 -25v-345l355 370q8 11 28 11h123q15 0 26 -11t11 -25.5t-11 -25.5t-26 -11h-106l-409 -425q-14 -14 -28 -14v0z" />
    <glyph glyph-name="uniF189" unicode="&#xf189;" 
d="M15 -64q-9 0 -12 3q-11 11 0 21l232 232l-229 229q-4 4 -4 11.5t4 12.5q11 11 21 0l253 -253l-253 -253q-3 -3 -12 -3z" />
    <glyph glyph-name="uniF18A" unicode="&#xf18a;" 
d="M798 188q25 -16 26 -39.5t-22 -46.5l-106.5 -76.5l-106.5 -76.5q-26 -16 -41 -4.5t-15 46.5v90h-469v0q-26 0 -43 17t-17 43v247q0 26 17 43t43 17t43 -17t17 -43v-183h405v94q0 38 15 49.5t41 -7.5l106 -76.5z" />
    <glyph glyph-name="uniF18B" unicode="&#xf18b;" 
d="M552 68q-22 0 -31 18q-5 12 -0.5 25.5t16.5 17.5q15 7 24 23.5t9 37.5t-9.5 38t-23.5 24q-12 5 -17 18t1 25q5 12 18.5 17t24.5 -2q35 -16 54.5 -48.5t19.5 -74.5q0 -39 -20 -72.5t-54 -49.5q-3 3 -12 3zM644 -64q-22 0 -31 18q-3 9 -2 17t5.5 15.5t12.5 10.5
q50 23 81.5 76t31.5 117q0 65 -30.5 118t-82.5 76q-12 4 -17 17.5t1 25.5q5 11 18 16t25 -1q69 -32 109.5 -100.5t40.5 -151.5t-40.5 -152t-109.5 -99q-1 0 -5 -1.5t-7 -1.5zM258 68q-10 0 -13 3q-34 16 -53.5 48.5t-19.5 74.5q0 39 19.5 72.5t53.5 49.5q12 5 25.5 0.5
t17.5 -15.5q5 -12 0.5 -25.5t-15.5 -17.5q-16 -7 -25 -23.5t-9 -37.5t10 -38t24 -24q12 -4 17 -17.5t-2 -25.5q-4 -24 -30 -24zM166 -64q-10 0 -13 3q-69 32 -109.5 100.5t-40.5 150.5q0 84 41 153t109 99q12 5 25.5 0.5t17.5 -15.5q5 -12 0.5 -25.5t-15.5 -17.5
q-51 -23 -82.5 -76t-31.5 -118t31 -117.5t83 -75.5q12 -4 17 -17.5t-2 -25.5q-12 -18 -30 -18zM472 194q0 -28 -20 -48t-47.5 -20t-47.5 20t-20 47.5t20 47.5t47.5 20t47.5 -20t20 -47v0z" />
    <glyph glyph-name="uniF18C" unicode="&#xf18c;" 
d="M503 348l-89 -86l-77 14l-11 74l88 89q-36 12 -73.5 3.5t-63.5 -36.5q-32 -31 -39 -72.5t11 -78.5l-233 -233q-14 -14 -14 -33.5t14 -33.5t34 -14t34 14l233 232q37 -18 80.5 -11.5t70.5 37.5q30 25 39 63t-4 72v0z" />
    <glyph glyph-name="uniF18D" unicode="&#xf18d;" 
d="M3 193.5q0 104.5 73.5 178t178 73.5t178 -73.5t73.5 -178t-73.5 -178t-178 -73.5t-178 73.5t-73.5 178z" />
    <glyph glyph-name="uniF18E" unicode="&#xf18e;" 
d="M579 -67q-17 0 -28 11l-408 426h-107q-14 0 -25 10.5t-11 25.5t11 25.5t25 10.5h123q17 0 28 -11l356 -369v344q0 15 10.5 25.5t25.5 10.5h123q15 0 26 -10.5t11 -25.5t-11 -25.5t-26 -10.5h-86v-400q0 -25 -23 -34q-3 0 -8 -1.5t-6 -1.5v0z" />
    <glyph glyph-name="uniF18F" unicode="&#xf18f;" 
d="M369 -61q-23 0 -33 19l-199 417h-101q-14 0 -25 11t-11 25.5t11 25.5t25 11h123q24 0 34 -20l176 -366l177 366q7 20 33 20h123q15 0 26 -11t11 -25.5t-11 -25.5t-26 -11h-100l-199 -417q-10 -19 -34 -19v0z" />
    <glyph glyph-name="uniF190" unicode="&#xf190;" 
d="M391 503.5q0 19.5 14 33.5t33 14h279q20 0 34 -14t14 -33.5t-14 -33.5t-34 -14h-279q-19 0 -33 14t-14 33.5zM391 304.5q0 19.5 14 33.5t33 14h279q20 0 34 -14t14 -33.5t-14 -33.5t-34 -14h-279q-19 0 -33 14t-14 33.5zM391 105.5q0 19.5 14 33.5t33 14h279q20 0 34 -14
t14 -33.5t-14 -33.5t-34 -14h-279q-19 0 -33 14t-14 33.5z" />
    <glyph glyph-name="uniF191" unicode="&#xf191;" 
d="M287 448q107 0 182 -75t75 -182q0 -103 -70.5 -176t-171.5 -79l45 237h-125l-40 -215q-67 31 -108.5 94t-41.5 139q0 106 75 181.5t180 75.5zM299 226q32 0 53.5 18t21.5 49q0 28 -17 45.5t-45 17.5q-31 0 -52 -19.5t-21 -50.5q0 -28 17 -44t43 -16z" />
    <glyph glyph-name="uniF192" unicode="&#xf192;" 
d="M596 12v-3h106q15 0 26 -11t11 -25.5t-11 -25.5t-26 -11h-123q-20 0 -28 11l-182 190l-182 -190q-11 -11 -28 -11h-123q-14 0 -25 11t-11 25.5t11 25.5t25 11h107l173 182l-173 181h-107q-14 0 -25 11t-11 26t11 25.5t25 10.5h123q21 0 28 -11l182 -187l182 190
q11 11 28 11h123q15 0 26 -11t11 -25.5t-11 -25.5t-26 -11h-106l-174 -182z" />
    <glyph glyph-name="uniF193" unicode="&#xf193;" 
d="M719 440q-15 5 -28.5 0.5t-21.5 -17.5l-177 -367l-81 171l79 165q5 15 0.5 28.5t-17.5 21.5q-15 6 -28.5 1.5t-22.5 -17.5l-53 -109l-53 109q-6 14 -21 18.5t-29 -2.5q-15 -6 -19.5 -20.5t2.5 -29.5l78 -165l-81 -171l-176 367q-6 14 -21 18.5t-29 -1.5
q-15 -7 -19.5 -21.5t2.5 -29.5l210 -436q7 -20 33 -20q24 0 34 20l89 187l90 -187q8 -20 33 -20q24 0 34 20l210 436q8 15 3 29.5t-20 21.5v0z" />
    <glyph glyph-name="uniF194" unicode="&#xf194;" 
d="M641 637.5q0 12.5 8.5 21t20.5 8.5t20.5 -8.5t8.5 -21t-8.5 -21t-20.5 -8.5t-20.5 8.5t-8.5 21zM787 637.5q0 12.5 8.5 21t20.5 8.5t20.5 -8.5t8.5 -21t-8.5 -21t-20.5 -8.5t-20.5 8.5t-8.5 21zM641 491q0 12 8.5 20.5t20.5 8.5t20.5 -8.5t8.5 -20.5t-8.5 -20.5
t-20.5 -8.5t-20.5 8.5t-8.5 20.5zM787 491q0 12 8.5 20.5t20.5 8.5t20.5 -8.5t8.5 -20.5t-8.5 -20.5t-20.5 -8.5t-20.5 8.5t-8.5 20.5zM641 344q0 12 8.5 20.5t20.5 8.5t20.5 -8.5t8.5 -20.5t-8.5 -20.5t-20.5 -8.5t-20.5 8.5t-8.5 20.5zM787 344q0 12 8.5 20.5t20.5 8.5
t20.5 -8.5t8.5 -20.5t-8.5 -20.5t-20.5 -8.5t-20.5 8.5t-8.5 20.5zM641 197q0 12 8.5 21t20.5 9t20.5 -9t8.5 -21t-8.5 -20.5t-20.5 -8.5t-20.5 8.5t-8.5 20.5zM787 197q0 12 8.5 21t20.5 9t20.5 -9t8.5 -21t-8.5 -20.5t-20.5 -8.5t-20.5 8.5t-8.5 20.5z" />
    <glyph glyph-name="uniF195" unicode="&#xf195;" 
d="M338 193q15 0 25.5 -10t12.5 -24q0 -15 -9.5 -25t-25.5 -10h-60l-41 -156l-43 156h-64q-15 0 -25 10t-10 25t10 24.5t25 9.5h23q-3 3 -3 15l18 121v0q-13 0 -21 9t-8 20q0 13 8.5 21t20.5 8h127q12 0 20.5 -8.5t8.5 -20.5t-9 -20.5t-20 -8.5v0l20 -121q0 -12 -3 -15h23z
" />
    <glyph glyph-name="uniF196" unicode="&#xf196;" 
d="M393 439q11 -15 0 -26l-309 -309q-4 -5 -13 -5t-13 5l-3 3q-4 4 -4 12.5t4 13.5l101 101l15 98v0q-13 0 -21 9t-8 20q0 13 8.5 21t20.5 8h130q1 0 4 -1.5t5 -1.5l54 55q16 11 29 -3zM338 193q15 0 25 -10.5t10 -23.5q0 -15 -9.5 -25t-25.5 -10h-60l-41 -156l-43 156
l118 119l6 -35q0 -9 -3 -15h23z" />
    <glyph glyph-name="uniF197" unicode="&#xf197;" 
d="M699 445q15 0 26 -10.5t11 -25.5v-397v-37q0 -15 -11 -25.5t-26 -10.5h-660q-15 0 -25.5 10.5t-10.5 25.5v397v37q0 15 10.5 25.5t25.5 10.5h660zM76 372v-360h291v360h-291z" />
    <glyph glyph-name="uniF198" unicode="&#xf198;" 
d="M528 445q22 0 38 -16t16 -39v-395q0 -22 -16 -38t-38 -16h-395q-23 0 -38.5 16t-15.5 38v395q0 23 15.5 39t38.5 16h395zM518 279v103h-376v-103h12q7 42 34 65q19 16 61 16h30v-294q0 -29 -3 -35q-5 -10 -13 -14q-11 -6 -29 -6h-14v-10h219v10h-14q-18 0 -28 5.5
t-13.5 13t-3.5 36.5v294h31q29 0 41 -5q21 -9 33 -24.5t22 -51.5h11z" />
  </font>
</defs>
</svg>
