<!--?xml version="1.0" encoding="utf-8"?-->
<!-- Generator: Adobe Illustrator 15.0.0, SVG Export Plug-In . SVG Version: 6.00 Build 0)  -->

<svg xmlns="http://www.w3.org/2000/svg" xmlns:xlink="http://www.w3.org/1999/xlink" width="200px" height="200px" viewBox="0 0 200 200">
<g>
	<path fill="#EF901C" d="M84.792,160.4c0.195-1.152,0.388-2.305,0.626-3.449c0.083-0.41-0.157-0.713-0.459-0.847
		c-0.283-0.405-0.999-0.434-1.28,0.123c-0.171-0.249-0.338-0.499-0.554-0.732c-0.983-1.064-2.5-1.891-3.888-1.929
		c-0.356-0.164-0.739-0.272-1.16-0.302c-1.962-0.14-3.138,1.074-3.741,2.66c-0.38,0.209-0.741,0.47-1.07,0.81
		c-1.24,1.27-1.219,3.61-0.75,5.194c0.329,1.114,1.035,1.824,1.913,2.237c0.585,1.048,1.518,1.776,2.798,1.795
		c0.265,0.002,0.509-0.048,0.742-0.128c0.074,0.178,0.155,0.344,0.245,0.496c0.182,0.311,0.484,0.402,0.822,0.355
		c0.05-0.005,0.095-0.028,0.145-0.036c0.011,0.018,0.018,0.039,0.03,0.054c0.31,0.474,0.941,0.503,1.268,0.029
		c0.286-0.417,0.541-0.856,0.773-1.306c0.17-0.176,0.332-0.361,0.487-0.565c-0.08,0.863,1.162,0.907,1.436,0.193
		c0.021-0.052,0.034-0.109,0.055-0.161c0.197-0.07,0.368-0.214,0.444-0.46c0.015-0.053,0.027-0.102,0.042-0.155
		c0.217-0.062,0.404-0.208,0.456-0.47c0.094-0.439,0.162-0.883,0.242-1.322C84.627,161.799,84.75,161.098,84.792,160.4z" id="path-0" style="position: relative;"></path>
	<path fill="#A41828" stroke="#020202" stroke-miterlimit="10" d="M90.645,159.828c-0.108-1.419-0.444-2.691-0.967-3.828
		c-0.062-0.247-0.121-0.493-0.177-0.734c-0.117-0.507-0.42-0.805-0.785-0.953c-0.651-0.912-1.436-1.715-2.331-2.406
		c-0.376-0.441-0.776-0.875-1.225-1.29c-4.807-4.412-12.416-2.71-16.078,2.204c-0.531-0.121-1.104,0.047-1.453,0.672
		c-4.676,8.372-1.369,19.304,9.046,20.777c4.728,0.669,9.375-0.645,12.577-4.288C91.812,167.071,91.462,163.387,90.645,159.828z
		 M73.951,158.485c0.244-1.229,0.768-2.345,1.604-3.008c0.207-0.011,0.422-0.063,0.645-0.188c0.314-0.175,0.659-0.318,1.02-0.438
		c0.247-0.011,0.449-0.084,0.628-0.181c1.547-0.363,3.309-0.251,4.689,0.424c1.872,1.672,2.379,4.528,1.058,7.321
		c-1.906,4.035-6.655,4.98-9.068,0.979c-0.479-0.797-0.733-1.968-0.739-3.186c0.107-0.198,0.18-0.42,0.176-0.703
		C73.959,159.167,73.954,158.825,73.951,158.485z" id="path-1" style="position: relative;"></path>
	<path fill="#6A0009" stroke="#020202" stroke-miterlimit="10" d="M82.373,156.46c-0.933-1.486-2.837-1.496-4.22-0.646
		c-1.684,0.854-2.584,2.608-2.267,4.656c0.287,1.857,2.083,4.014,4.16,3.35c1.305-0.418,1.984-1.612,2.447-2.816
		C83.035,159.594,83.214,157.798,82.373,156.46z" id="path-2" style="position: relative;"></path>
	<path fill="#EF901C" d="M157.509,158.935c0.198-1.152,0.396-2.305,0.642-3.449c0.085-0.413-0.161-0.713-0.473-0.847
		c-0.289-0.405-1.021-0.434-1.31,0.123c-0.175-0.249-0.348-0.499-0.568-0.732c-1.009-1.065-2.561-1.892-3.985-1.93
		c-0.363-0.162-0.758-0.271-1.188-0.303c-2.012-0.139-3.215,1.076-3.834,2.659c-0.39,0.209-0.758,0.473-1.095,0.81
		c-1.271,1.272-1.249,3.611-0.77,5.197c0.337,1.113,1.061,1.823,1.959,2.236c0.602,1.049,1.556,1.777,2.868,1.796
		c0.273,0.002,0.523-0.05,0.761-0.132c0.075,0.182,0.159,0.348,0.251,0.5c0.187,0.311,0.497,0.402,0.843,0.355
		c0.05-0.009,0.098-0.028,0.147-0.037c0.011,0.017,0.021,0.04,0.03,0.055c0.319,0.474,0.966,0.503,1.301,0.029
		c0.293-0.419,0.553-0.856,0.792-1.306c0.174-0.176,0.34-0.364,0.498-0.565c-0.079,0.862,1.192,0.907,1.473,0.193
		c0.021-0.052,0.034-0.109,0.056-0.164c0.203-0.067,0.38-0.212,0.455-0.457c0.017-0.053,0.028-0.102,0.043-0.155
		c0.223-0.063,0.413-0.208,0.468-0.47c0.094-0.439,0.165-0.883,0.247-1.324C157.342,160.333,157.466,159.632,157.509,158.935z" id="path-3" style="position: relative;"></path>
	<path fill="#A41828" stroke="#020202" stroke-miterlimit="10" d="M155.229,146.008c-0.957-0.201-1.724,0.182-2.21,0.785
		c-4.261-0.777-8.95,1.078-11.609,4.562c-0.544-0.12-1.131,0.047-1.49,0.672c-4.791,8.368-1.402,19.304,9.271,20.777
		c0.169,0.023,0.336,0.025,0.505,0.044c0.35,0.424,0.885,0.706,1.613,0.695c7.107-0.102,13.855-4.376,15.156-11.517
		C167.994,153.63,163.188,147.681,155.229,146.008z M146.987,161.927c-0.491-0.795-0.749-1.966-0.757-3.186
		c0.109-0.196,0.186-0.418,0.18-0.7c-0.006-0.339-0.009-0.683-0.014-1.021c0.25-1.23,0.79-2.344,1.645-3.008
		c0.212-0.011,0.434-0.063,0.661-0.188c0.32-0.175,0.676-0.317,1.046-0.44c0.253-0.01,0.46-0.082,0.645-0.179
		c1.586-0.364,3.392-0.251,4.806,0.424c1.918,1.672,2.437,4.528,1.085,7.321C154.33,164.984,149.461,165.93,146.987,161.927z" id="path-4" style="position: relative;"></path>
	<path fill="#6A0009" stroke="#020202" stroke-miterlimit="10" d="M155.029,154.992c-0.955-1.484-2.908-1.498-4.324-0.644
		c-1.728,0.854-2.649,2.608-2.325,4.656c0.296,1.855,2.136,4.014,4.266,3.35c1.336-0.418,2.034-1.612,2.506-2.816
		C155.707,158.124,155.891,156.332,155.029,154.992z" id="path-5" style="position: relative;"></path>
	
		<path fill="#35BCA6" stroke="#020202" stroke-width="1.9729" stroke-linecap="round" stroke-linejoin="round" stroke-miterlimit="10" d="
		M36.122,162.543c0,0-2.732-8.422,2.276-12.519c5.006-4.096,9.102-4.323,9.102-4.323s-10.695-41.193-8.647-65.544
		c2.048-24.35,10.697-43.923,36.641-47.564c25.945-3.641,63.497,2.276,77.149,19.118c13.657,16.841,20.029,70.094,20.029,70.094
		s12.063-0.683,18.662,8.648c6.598,9.331,5.689,32.771,2.503,35.048c-3.187,2.275-28.519,1.065-28.519,1.065
		s5.132-22.361-14.722-20.638c-13.831,1.2-13.428,17.296-13.428,17.296H91.423c0,0,0.229-16.158-12.972-16.158
		c-13.199,0-14.564,16.841-14.564,16.841s-11.379,0.911-18.662,1.139C37.942,165.273,36.122,162.543,36.122,162.543z" id="path-6" style="position: relative;"></path>
	<path fill="#6F000D" stroke="#020202" stroke-miterlimit="10" d="M103.979,120.874c-0.098-0.927-1.568-0.956-1.467-0.016
		c1.48,13.959,0.991,28.024,0.978,42.035c-0.001,0.942,1.466,0.961,1.467,0.016C104.97,148.897,105.459,134.833,103.979,120.874z" id="path-7" style="position: relative;"></path>
	<path fill="#A0590A" stroke="#020202" stroke-miterlimit="10" d="M76.855,138.273c-12.619,0.519-16.762,11.812-18.547,22.48
		c-0.154,0.919,1.253,1.334,1.409,0.401c1.613-9.639,4.478-18.964,15.212-21.176c11.399-2.348,21.884,10.081,20.483,20.967
		c-0.122,0.936,1.348,0.944,1.465,0.016C98.327,149.722,88.245,137.806,76.855,138.273z" id="path-8" style="position: relative;"></path>
	<path fill="#A0590A" stroke="#020202" stroke-miterlimit="10" d="M168.097,144.273c-4.057-5.408-9.847-8.855-16.645-9.271
		c-13.263-0.811-22.326,14.165-21.294,26.116c0.08,0.93,1.547,0.957,1.466,0.013c-1.008-11.677,7.346-24.734,19.813-24.663
		c6.58,0.039,12.475,4.257,16.062,9.506c3.655,5.352,3.859,11.842,3.496,18.097c-0.284,0.136-0.506,0.418-0.446,0.813
		c0.034,0.473,0.147,0.927,0.342,1.36c0.27,0.787,1.381,0.675,1.442-0.172C172.883,158.517,172.848,150.608,168.097,144.273z" id="path-9" style="position: relative;"></path>
	<path fill="#FFEFCA" stroke="#020202" stroke-width="1.5345" stroke-miterlimit="10" d="M73.901,118.847
		c0,0-4.097-25.944,0.682-41.192c4.779-15.248,22.304-22.758,36.642-14.11s14.564,32.999,15.246,41.419
		c0.686,8.42,1.14,15.247-1.593,16.613c-2.729,1.366-13.653-1.365-28.676-1.138c-15.02,0.229-17.979,1.365-20.026,0.683
		S73.901,118.847,73.901,118.847z" id="path-10" style="position: relative;"></path>
	<path fill="#FFEFCA" stroke="#020202" stroke-width="1.5345" stroke-miterlimit="10" d="M42.039,68.096
		c0,0,9.104,1.136,14.337,14.792c5.235,13.655,9.785,37.097,7.965,38.462s-20.027,3.642-20.027,3.642s-3.414-14.108-4.552-30.496
		C38.627,78.108,42.039,68.096,42.039,68.096z" id="path-11" style="position: relative;"></path>
	<path fill="#FFEFCA" stroke="#020202" stroke-width="1.5345" stroke-miterlimit="10" d="M156.286,59.903
		c0,0-16.388-2.731-21.394,5.917c-5.009,8.647-2.505,37.322-1.595,45.288c0.911,7.966,1.368,10.696,4.781,11.835
		c3.414,1.137,14.793,0.909,22.53,0.455c7.736-0.455,11.152-2.276,11.152-2.276s-3.416-22.531-7.966-39.371
		C159.244,64.91,156.286,59.903,156.286,59.903z" id="path-12" style="position: relative;"></path>
</g>
<g>
	<path fill="#ED1847" stroke="#020202" stroke-miterlimit="10" d="M35.447,144.544c0,0-11.072-2.249-12.678-9.148
		c-1.604-6.9,5.938-7.223,8.186-2.247C33.199,138.125,35.447,144.544,35.447,144.544z" id="path-13" style="position: relative;"></path>
	<path fill="#ED1847" stroke="#020202" stroke-miterlimit="10" d="M32.238,149.68c0,0-7.063-1.284-13.481,1.604
		c-6.419,2.888-2.408,8.987,1.925,8.025C25.016,158.344,32.238,149.68,32.238,149.68z" id="path-14" style="position: relative;"></path>
	<path fill="#673163" stroke="#020202" stroke-miterlimit="10" d="M25.657,145.988c0,0-12.999,4.493-17.813-2.086
		c-4.814-6.58,4.012-9.629,8.345-6.58C20.521,140.372,25.657,145.988,25.657,145.988z" id="path-15" style="position: relative;"></path>
	<path fill="#72BEB7" stroke="#020202" stroke-miterlimit="10" d="M20.837,133.357c0,0-9.148,2.455-14.856-5.884
		c-5.71-8.339,3.168-14.882,7.86-8.204C18.531,125.946,20.837,133.357,20.837,133.357z" id="path-16" style="position: relative;"></path>
</g>
</svg>
