<!--?xml version="1.0" encoding="utf-8"?-->
<!-- Generator: Adobe Illustrator 15.0.0, SVG Export Plug-In . SVG Version: 6.00 Build 0)  -->

<svg xmlns="http://www.w3.org/2000/svg" xmlns:xlink="http://www.w3.org/1999/xlink" width="200px" height="200px" viewBox="0 0 200 200">
<g>
	<path fill="#D74D81" stroke="#020202" stroke-miterlimit="10" d="M25.077,90.527c2.317-4.325,6.404-6.335,10.002-7.913
		c7.46-2.936,14.654-3.604,20.585-3.501c5.958,0.125,10.724,1.253,13.756,2.61c1.517,0.66,2.595,1.335,3.299,1.847
		c0.417-0.555,0.721-0.957,0.901-1.198c0.064-0.091,0.131-0.184,0.196-0.272c-0.003,0.009,0.01-0.159-0.111-0.404
		c0.092,0.021,0.184,0.034,0.277,0.055c4.265,3.112,9.481,4.97,15.069,4.97c1.491,0,2.953-0.135,4.378-0.389
		c0.756,0.069,1.517,0.112,2.288,0.112c4.431,0,8.626-1.173,12.298-3.205c6.537-2.142,11.984-6.864,15.113-12.914
		c0.318-0.279,0.631-0.564,0.938-0.857c0.98,1.204,1.988,2.412,3.027,3.637c0.443,0.521,0.896,1.045,1.352,1.569
		c0.285-0.825,0.852-2.051,1.994-3.47c2.066-2.641,6.059-5.619,11.57-7.946c5.504-2.225,12.506-4.372,20.66-3.638
		c1.984,0.215,4.246,0.864,6.047,2.053c1.822,1.105,3.596,2.47,5.061,4.24c3.086,3.453,4.092,8.912,2.492,13.494
		c-1.496,4.621-4.523,8.307-7.854,11.161c-3.367,2.85-7.172,4.905-11.066,6.058c-2.855,0.845-5.773,1.177-8.531,0.902
		c2.066,2.438,4.123,4.963,6.137,7.602c6.311,8.006,12.115,18.439,11.273,30.264c-0.426,5.809-2.676,11.547-6.236,16.336
		c-3.391,4.617-7.857,8.406-12.783,11.445c0.775,0.156,1.553,0.365,2.328,0.643c4.064,1.402,7.561,5.275,8.408,9.93
		c0.945,4.615-0.232,9.609-2.863,13.689c-2.635,4.129-6.477,7.072-10.541,9.088c-4.186,1.893-8.604,2.422-12.691,2.268
		c-8.191-0.363-15.379-3.396-19.83-7.752c-4.652-4.375-5.238-10.098-4.396-13.314c0.604-2.584,1.426-4.092,1.736-4.648l0.012-0.027
		c-2.635-0.055-5.236-0.238-7.797-0.539l-0.014,0.123c-0.418,4.197-1.522,8.613-3.814,12.709c-2.196,4.117-6.039,7.73-10.609,9.664
		c-9.047,3.906-19.232,3.891-26.925-0.188c-7.876-4.09-10.644-13.848-7.244-19.602c3.114-5.652,7.079-8.877,8.691-11.973
		c1.713-2.873,1.798-4.877,1.847-4.992c-0.006,0.025-0.01,0.094-0.018,0.201l0.024-0.209l0.097-0.098l0.159-0.205
		c-2.61-2.133-4.936-4.498-6.889-7.109c-5.812-7.494-7.268-16.783-6.313-24.529c0.785-6.631,2.979-12.367,5.387-17.273
		c-2.184,2.387-4.851,4.752-8.415,6.084c-3.986,1.486-8.698,0.998-12.691-1.09c-4-2.055-7.438-5.475-9.502-9.801
		C23.252,99.947,22.968,94.683,25.077,90.527z" id="path-0"></path>
	<g>
		<g>
			<g>
				<path fill="#D74D81" stroke="#020202" stroke-miterlimit="10" d="M45.513,38.502c-7.257-3.395-5.447-11.981-1.969-16.707
					c3.481-4.724,11.497-9.484,16.892-3.557c4.015,4.414,4.976,12.963,1.757,17.333C58.973,39.94,50.916,41.03,45.513,38.502z" id="path-1"></path>
			</g>
			<g>
				<path fill="#D74D81" stroke="#020202" stroke-miterlimit="10" d="M131.295,19.781c5.354-6.15,0.127-13.395-5.059-16.355
					c-5.184-2.96-14.604-4.081-17.178,3.656c-1.918,5.758,0.715,14.11,5.51,16.845C119.365,26.666,127.309,24.357,131.295,19.781z" id="path-2" style="position: relative;"></path>
			</g>
			<g>
				<path fill="#D74D81" stroke="#020202" stroke-miterlimit="10" d="M136.783,42.237c-0.41-28.68-30.631-35.601-50.85-31.322
					C65.719,15.192,38.84,34.192,50.087,60.584c8.374,19.649,34.472,35.526,53.165,31.57
					C121.949,88.195,137.092,63.59,136.783,42.237z" id="path-3" style="position: relative;"></path>
			</g>
			<g>
				<path fill="#EAAFBF" stroke="#020202" stroke-miterlimit="10" d="M50.345,37.635c-4.737-2.215-3.555-7.817-1.286-10.9
					c2.271-3.083,7.5-6.187,11.021-2.321c2.619,2.881,0.138,6.009-1.963,8.861C56.016,36.125,53.869,39.28,50.345,37.635z" id="path-4" style="position: relative;"></path>
			</g>
			<g>
				<path fill="#EAAFBF" stroke="#020202" stroke-miterlimit="10" d="M124.666,19.232c3.344-3.843,0.08-8.369-3.162-10.219
					c-3.238-1.849-9.123-2.549-10.732,2.284c-1.197,3.598,1.211,6.082,4.209,7.792C117.977,20.799,122.174,22.09,124.666,19.232z" id="path-5" style="position: relative;"></path>
			</g>
		</g>
		<g>
			<g>
				<path fill="#FFFFFF" stroke="#020202" stroke-miterlimit="10" d="M73.417,75.39c2.08,15.84,22.153,18.036,34.227,13.661
					c12.066-4.371,26.086-18.911,17.533-32.41c-6.363-10.052-23.311-16.257-34.471-12.213C79.545,48.47,71.87,63.595,73.417,75.39z" id="path-6" style="position: relative;"></path>
			</g>
			<g>
				<path stroke="#020202" stroke-miterlimit="10" d="M106.088,53.646c-0.902-6.376-8.686-7.378-13.333-5.697
					c-4.645,1.685-9.984,7.44-6.593,12.915c2.526,4.077,9.123,6.67,13.421,5.113C103.881,64.42,106.76,58.391,106.088,53.646z" id="path-7" style="position: relative;"></path>
			</g>
			<g>
				<path stroke="#020202" stroke-miterlimit="10" d="M82.47,78.047c3.333,3.825,7.07,5.935,10.858,6.785
					c3.787,0.847,7.621,0.419,11.099-0.842c2.508-0.91,4.834-2.253,6.822-3.855c3.873-3.12,7.016-7.922,7.605-14.354l0.707,0.325
					c-0.623,6.736-3.885,11.673-7.846,14.864c-2.029,1.636-4.398,3.005-6.961,3.934c-3.549,1.286-7.466,1.729-11.378,0.854
					c-3.91-0.871-7.818-3.069-11.293-7.065L82.47,78.047z" id="path-8" style="position: relative;"></path>
				<polyline stroke="#020202" stroke-miterlimit="10" points="96.977,60.263 105.646,84.194 105.016,84.421 96.348,60.493 				"></polyline>
			</g>
		</g>
		<g>
			<g>
				<path fill="#FFFFFF" stroke="#020202" stroke-miterlimit="10" d="M83.197,46.724c-0.332-3.387-3.873-4.378-6.017-3.777
					c-2.143,0.604-4.651,3.292-3.171,6.356c1.103,2.282,4.083,4.034,6.064,3.476C82.054,52.224,83.445,49.245,83.197,46.724z" id="path-9" style="position: relative;"></path>
			</g>
			<g>
				<path fill="#FFFFFF" stroke="#020202" stroke-miterlimit="10" d="M110.949,38.926c-0.33-3.386-3.873-4.375-6.016-3.772
					c-2.141,0.6-4.651,3.289-3.172,6.354c1.104,2.282,4.082,4.032,6.063,3.478C109.807,44.429,111.197,41.45,110.949,38.926z" id="path-10" style="position: relative;"></path>
			</g>
			<g>
				<path stroke="#020202" stroke-miterlimit="10" d="M109.295,40.911c-0.32-2.368-2.361-3.198-3.549-2.866
					c-1.184,0.334-2.498,2.106-1.539,4.295c0.715,1.631,2.467,2.969,3.564,2.659C108.871,44.691,109.535,42.676,109.295,40.911z" id="path-11" style="position: relative;"></path>
			</g>
			<g>
				<path stroke="#020202" stroke-miterlimit="10" d="M81.552,48.704c-0.322-2.367-2.363-3.197-3.551-2.864
					c-1.187,0.333-2.497,2.104-1.538,4.295c0.716,1.631,2.468,2.966,3.564,2.659C81.125,52.483,81.792,50.467,81.552,48.704z" id="path-12" style="position: relative;"></path>
			</g>
		</g>
	</g>
	
		<ellipse transform="matrix(0.9551 -0.2964 0.2964 0.9551 -27.0912 17.4995)" fill="#EAAFBF" stroke="#020202" stroke-miterlimit="10" cx="44.166" cy="98.093" rx="13.497" ry="9.907" id="ellipse-0" style="position: relative;"></ellipse>
	
		<ellipse transform="matrix(0.9551 -0.2964 0.2964 0.9551 -15.5088 49.7005)" fill="#EAAFBF" stroke="#020202" stroke-miterlimit="10" cx="156.151" cy="75.996" rx="13.497" ry="9.907" id="ellipse-1" style="position: relative;"></ellipse>
	<path fill="#EAAFBF" stroke="#020202" stroke-miterlimit="10" d="M151.449,188.722c0,3.699-7.656,9.278-18.333,9.278
		c-10.678,0-20.334-5.579-20.334-9.278c0-2.03,5.035,1.271,9.5,1.133c5.167-0.158,12.144-3.147,16.667-4.451
		C149,182.508,151.449,185.021,151.449,188.722z" id="path-13" style="position: relative;"></path>
	<path fill="#EAAFBF" stroke="#020202" stroke-miterlimit="10" d="M55.287,188.107c0,3.612,7.34,9.062,17.575,9.062
		c10.236,0,19.493-5.449,19.493-9.062c0-1.983-4.827,1.241-9.107,1.105c-4.954-0.154-11.642-3.073-15.978-4.347
		C57.635,182.038,55.287,184.493,55.287,188.107z" id="path-14" style="position: relative;"></path>
</g>
<circle fill="#EAAFBF" stroke="#020202" stroke-miterlimit="10" cx="107.458" cy="128.145" r="35.47" id="circle-0"></circle>
</svg>
